<?xml version="1.0" encoding="utf-8"?>
<!-- Generator: Adobe Illustrator 23.0.3, SVG Export Plug-In . SVG Version: 6.00 Build 0)  -->
<svg 
width="6.728em"
height="6.5em"
version="1.1" xmlns="http://www.w3.org/2000/svg" xmlns:xlink="http://www.w3.org/1999/xlink" x="0px" y="0px"
	 viewBox="0 0 128 128" style="enable-background:new 0 0 128 128;" xml:space="preserve">
<style type="text/css">
	.st0{display:none;}
	.st1{display:inline;fill:url(#SVGID_1_);}
	.st2{display:inline;fill:#2D2D2D;}
	.st3{display:inline;}
	.st4{display:inline;fill:#FFFFFF;}
	.st5{fill:#D1D3D4;}
	.st6{fill:#414042;}
</style>
<g id="background" class="st0">
	<linearGradient id="SVGID_1_" gradientUnits="userSpaceOnUse" x1="33.4248" y1="32.0051" x2="121.8559" y2="124.543">
		<stop  offset="0" style="stop-color:#BD8B2C"/>
		<stop  offset="0.0877" style="stop-color:#AD7A2C"/>
		<stop  offset="0.2611" style="stop-color:#94602B"/>
		<stop  offset="0.4382" style="stop-color:#804D27"/>
		<stop  offset="0.6183" style="stop-color:#734024"/>
		<stop  offset="0.8031" style="stop-color:#6B3822"/>
		<stop  offset="1" style="stop-color:#693621"/>
	</linearGradient>
	<rect y="0" class="st1" width="128" height="128"/>
</g>
<g id="Layer_3" class="st0">
	<rect x="0" y="0.03" class="st2" width="128" height="128"/>
</g>
<g id="Layer_1" class="st0">
	<path class="st3" d="M77.61,100.92l-16.39,15.1l0.84-1.75l3.85-3.3l0.07-4.36l8.94-21.49l7.18,6.12l-1,5.59l-1.7,2.25l4.09-6.56
		l4.17-0.7l3.85-4.91l0.04-3.76l-1.12-1.24l3-8.68l2.47-1.15l1.72-2.22l-2.33-1.42l-11.55-0.89l-1.36-0.65l3.53-4.66l-0.57-1.88
		l-8.17-0.32l5.4,2.94l1.86-0.52l-2.73,3.28l-0.57,1.71l1.47,0.92l3.37,0.45l2.81,2.61l7.17-1.98l0.09,1.34l-6.42,4.03l-1.17,2.27
		l1.65,5.11l-0.61,5.61l-3.93,4.86L70.17,81.24L27.55,96.79l-7.01-1.93l-0.75-1.4l-1.02-0.94l-0.04-0.01l0.63-1.43l0.83,1.02
		l4.18,2.31l1.05-1.85l-2.02-5.75l10.54-4.35l-3.09-18.38l6.21-12.25l0.66-8.69l0.26-0.4l1.01,0.46l-16.62-9.09l40.03-2.69
		l0.03,1.63l0.03-0.1l-3.27,10.08l1.67-3.73l3.24,0.66l1.75-0.61l1.41,8.78l-0.95-7.9l5.02-13.94L71.3,26.3l0.92-1.05l-0.06,0.07
		l13.37-14.81l1.87,1.75l-3.98,33.81l0.41-7.12l9.36,8.52l-2.37,1.99l9.45-2.08l-2.33,4.09l-1.63,11.2l1.96-10.87l3.05-5.69
		l-0.02,0.03l0.5-0.56l-0.06,0.07l0.52-0.56l-0.03,0.09l0-0.54l6.31-5.61l6.88,7.92l4.56,1.25l-2.15,4.08l-3.46,1.72l-0.79,5.1
		l1.57,2.33l-9.27,8.29l0-0.16l-1.4,1.54l-5.78,1.64l-2.04,1.78l4.09-0.93l-5.8,10.84 M58.63,67.02l0.06-0.07l-0.51,0.58l0.06-0.07
		l-2.34,3.08l-0.4-0.09l-1.65-5.19l-0.79-1l-0.77,0.82L50.59,69l-0.84,9.82v-3.79l3.59-0.42l-1.41,3.65l3.49,5.18l3.14-0.61
		l4.26-4.82l1.15-3.35l1.23-1.44l0.63-4.34l-0.55-1.51l-2.86-2.98l-1.7-0.09l-1.63,2.23l0.05-0.06L58.63,67.02L58.63,67.02z
		 M94.06,76.27l2.68-2.08L94.06,76.27L94.06,76.27z"/>
	<polygon class="st3" points="41.07,107.62 39.91,96.33 59.87,87.64 61.96,88.16 66.71,92.72 68.77,93.16 68.63,83.52 69.96,82.42 
		73.08,88.52 61.55,109.12 41.07,107.62 	"/>
	<polygon class="st3" points="47.88,28.46 33.76,28.56 29.9,25.53 23.96,11.74 25.35,8.9 39,15.59 47.88,28.46 	"/>
	<polygon class="st3" points="41.07,107.62 61.55,109.12 50.91,115.47 60.5,111.57 65.79,106.6 65.72,110.96 61.87,114.27 
		61.03,116.02 49.84,118.39 42.46,116.19 42.51,116.26 40.74,114.55 40.7,114.62 38.05,111.63 38.1,111.62 37.19,109.14 
		37.96,108.64 49.2,115.84 41.07,107.62 	"/>
	<polygon class="st3" points="62.2,31.4 22.17,34.09 18.48,32.21 21.29,30.91 61.13,30.53 62.2,31.4 	"/>
	<polygon class="st3" points="87.18,10.54 81.85,11.16 71.98,25.32 72.03,25.25 71.11,26.3 71.11,26.29 65.64,39.34 63.89,39.95 
		60.66,39.29 62.26,32.94 62.23,33.03 79.9,8.83 87.18,10.54 	"/>
	<polygon class="st3" points="36.86,51.82 30.65,64.07 26.33,62.89 26.39,62.92 22.97,60.87 22.17,58.85 30.39,46.67 37.62,45.6 
		36.86,51.82 	"/>
	<polygon class="st3" points="21.43,70.04 24.1,65.54 29.38,66.76 29.84,70.63 27.63,77.65 27.68,77.6 26.13,79.16 19.16,73.94 
		19.65,72.47 19.59,72.53 20.07,71.98 20.04,72.01 20.51,71.46 20.47,71.52 20.99,70.5 20.96,70.53 21.45,69.99 21.43,70.04 	"/>
	<polygon class="st3" points="23.2,86.8 25.22,92.55 24.17,94.4 19.99,92.1 19.17,91.08 18.54,92.51 16.25,87.69 16.06,77.68 
		16.02,77.6 23.2,86.8 	"/>
	<polygon class="st3" points="108.35,39.02 102.04,44.63 102.05,45.17 102.07,45.09 101.55,45.65 101.61,45.57 101.11,46.13 
		101.13,46.1 100.08,47.37 92.82,49.14 105.57,35.2 108.35,39.02 	"/>
	<polygon class="st3" points="11.65,68 15,64.1 20.57,70.39 20.47,71.52 20.51,71.46 20.04,72.01 20.07,71.98 19.59,72.53 
		19.65,72.47 13.23,70.64 12.03,68.92 12.08,68.98 11.61,67.93 11.65,68 	"/>
	<polygon class="st3" points="19.16,73.94 26.13,79.16 18.85,80.66 16.02,77.6 16.06,77.68 15.8,75.57 19.16,73.94 	"/>
	<polygon class="st3" points="9.21,56.06 13.93,58.19 14.69,62.5 11.83,65.72 10.63,64.8 8.03,57.87 9.21,56.06 	"/>
	<polygon class="st3" points="20.57,70.39 15,64.1 16.57,61.42 21.91,66.58 21.43,70.04 21.45,69.99 20.96,70.53 20.99,70.5 
		20.57,70.39 	"/>
	<polygon class="st3" points="67.56,82.62 68.15,90.8 66.93,91.55 66.55,91.29 67.56,82.62 	"/>
	<polygon class="st3" points="37.62,45.6 30.39,46.67 33.8,43.14 36.68,43.35 37.62,45.6 	"/>
	<polygon class="st3" points="37.96,108.64 37.19,109.14 36.98,97.12 38.34,95.97 37.96,108.64 	"/>
	<polygon class="st3" points="29.38,66.76 24.1,65.54 23.73,63.69 24.65,62.46 26.39,62.92 26.33,62.89 29.38,66.76 	"/>
	<polygon class="st3" points="21.91,66.58 16.57,61.42 16.41,59.19 21.91,66.58 	"/>
	<polygon class="st3" points="38.99,105.99 40.19,109.03 38.99,105.99 	"/>
	<polygon class="st3" points="23.73,63.69 23.73,64.27 23.21,65.99 23.73,63.69 	"/>
	<polygon class="st3" points="18.58,92.52 19.6,93.46 18.58,92.52 	"/>
	<path class="st3" d="M120.25,78.01c-0.03-0.01-0.07-0.02-0.1-0.04c-0.01-0.01-0.01-0.04-0.02-0.06c0.04,0.04,0.09,0.08,0.13,0.13
		C120.25,78.03,120.25,78.01,120.25,78.01z"/>
	<polygon class="st3" points="37.52,43.12 37.21,42.82 37.78,42.73 37.52,43.12 	"/>
	<polygon class="st3" points="40.49,110.25 40.52,110.39 40.42,110.37 40.49,110.25 	"/>
	<polygon class="st3" points="65.35,68.88 64.72,73.22 62.6,74.58 62.66,74.53 58.16,76.06 57.77,67.46 57.7,67.53 58.22,66.96 
		58.15,67.02 58.67,66.46 58.62,66.52 63.55,67.07 65.35,68.88 	"/>
	<polygon class="st3" points="63.49,74.66 63.08,77.39 57.38,83.82 54.95,83.45 52.83,80.27 62.65,74.53 62.6,74.58 63.49,74.66 	
		"/>
	<polygon class="st3" points="50.12,69 51.83,65.08 52.6,64.26 53.38,65.26 55.11,70.69 52.87,74.62 49.28,75.04 50.12,69 	"/>
	<polygon class="st3" points="85.79,68.82 95.77,69.46 88.61,71.44 85.79,68.82 	"/>
	<polygon class="st3" points="78.75,60.8 84.08,60.93 85.02,61.65 84.26,62.46 82.4,62.98 78.75,60.8 	"/>
	<polygon class="st3" points="83.73,68.59 84.86,68.75 83.73,68.59 	"/>
	<polygon class="st3" points="26.3,80.45 27.68,77.6 27.63,77.65 31.73,68.57 34.56,68.35 34.46,68.41 34.91,69.26 31.15,83.61 
		26.55,85.31 26.3,80.45 	"/>
	<polygon class="st3" points="26.3,80.45 26.55,85.31 19.07,82.26 26.3,80.45 	"/>
	<polygon class="st3" points="34.56,68.35 31.73,68.57 30.9,65.04 30.92,65.11 34.56,68.35 	"/>
	<polygon class="st3" points="30.9,65.04 30.62,65.63 30.34,65.2 30.92,65.12 30.9,65.04 	"/>
	<polygon class="st3" points="34.91,69.26 34.46,68.41 34.91,69.26 	"/>
	<polygon class="st3" points="56.04,70.61 58.03,71.03 58.16,76.06 55.39,76.56 55.43,76.64 54.97,75.58 55.02,75.64 55.22,73.36 
		57.16,74.76 56.61,71.58 56.04,70.61 	"/>
	<polygon class="st3" points="55.39,76.56 55.24,78.36 52.54,79.22 55.02,75.64 54.97,75.58 55.43,76.64 55.39,76.56 	"/>
</g>
<g id="Layer_4" class="st0">
	<path class="st3" d="M39,15.59L25.35,8.9l-1.39,2.83l5.94,13.54L34.01,29l0.3,1.78l-12.4,0.12l-3.17,1.44l19.04,10.39l-4.28,0.72
		l-7.37,10.03l-3.32,5.72l1.15,4.19l-0.75,3.67l-5.53-6.15l-3.74-2.71l-5.57-2.55l-1.25,0.42l0.42,1.41l6.33,15.06l2.55,4.3
		l-0.61,2.33l0.61,9.48l1.7,3.89l5.62,3.21l3.13,0.23l2.52-0.2l6.98-3.25l9-2.23l9.74-3.56l7.98-2.91l7.08-2.58l4.44,2.58
		l-1.53,4.69l-2.14,4.48l-4.23-0.27l-5.52-4.75l-3.99,0.83l-6.34,2.25l-5.67,2.41l-6.2,2.51l-1.49,0.71l-0.38,8.63l0.38,4.95
		l2.84,3.95l4.61,2.72l4.8,0.54h5.68l8.57-2.25l3.33-4.83l5.48-5.05l8.38-6.78l7.17-7.01l7.04-6.24l2.38-6.15l2.2-4.12
		c0,0-0.04-3.32,1.21-3.78c1.25-0.46,6.08-4.46,6.08-4.46l5.91-3.62l0.41-4.1v-4.7l2.18-1.83l3.6-3.21l0.74-1.63l-6.18-1.75
		l-4.25-3.8l-3.25-4.87l-0.87-2.1L94.19,47.65l-9.16-7.7c0,0-0.84-1.51-0.73-1.9c0.12-0.38,3.11-25.8,3.11-25.8l-2.39-2.22
		L80.95,8.9L64,31.72l-12.51,0.59c0,0-3.31-3.41-3.61-3.85C47.58,28.02,39,15.59,39,15.59z"/>
</g>
<g id="Layer_5" class="st0">
	<path class="st4" d="M60.2,64l2.23,0.39l2.86,2.98l0.55,2.28l-0.03,2.7l-0.95,1.27l-1.44,1.61l-4.36,1.4l-3.01,1.76l-3.49,0.82
		l-0.68-1.82l1.01-2.78l2.06-4.49l2.43-2.41l0.79,0.85l-0.94,2.29c0,0-0.63,1.86-0.66,2.36s-0.7,2.01-0.7,2.01l1.08,0.35l3-1.05
		l3.54-1.39l1.04-1.87c0,0-0.17-1.99,0-2.52C64.7,68.22,64,66.81,64,66.81l-2.47-0.22l-2.39-0.12l0.06-0.92L60.2,64z"/>
</g>
<g id="Layer_6">
	<g>
		<path class="st5" d="M91.19,72.04c-2.43,0.91-4.85,0.56-7.25-0.11c-1.12,0.31-2.2-0.3-3.49,0.19c-0.79,0.3-2.04-1.45-2.32-2.87
			l-0.02-0.01c-1.33-0.03-2.4-1.38-3.88-0.7c-0.43,0.2-0.65-0.28-0.48-0.57c1.35-2.29,1.03-4.97,1.82-7.38
			c0.04-0.13,0.13-0.24,0.19-0.36c0.32-0.61-0.34-1.03-0.69-1.4c0.35,0.37,1.01,0.79,0.69,1.4c0.5,0.21,0.89,0.97,1.58,0.27
			c0.27-0.27,0.67-0.28,0.87,0.08c0.11,0.19,0.06,0.52-0.03,0.74c-0.14,0.33-0.21,0.65-0.84,0.54c-1.45-0.26-1.71,0.21-1.22,1.74
			c0.61,1.89,2.11,3.13,2.88,4.84c0.55,0.13,1.09,0.25,1.64,0.38c0.71-0.55,1.34-0.79,1.62,0.4c2.5,1.07,4.01-1.44,6.13-1.72
			c0.63-0.89,0.28-1.35-0.67-1.58c-0.41-0.1-0.84-0.32-0.72-0.81c0.12-0.54,0.69-0.47,1.01-0.32c1.45,0.69,1.52-0.07,1.42-1.21
			c-0.1-1.08,0.04-2.11,1.07-2.81c0.39-0.26,0.41-0.68-0.01-1.02c-0.66,0.33-1.25,0.82-2.03,0.87l-0.02,0.01
			c-0.16,0.33-0.45,0.39-0.78,0.4c-1.28,1.45-1.24-0.81-2.1-0.79c-0.32,0.01-0.3-0.67,0.26-0.8c1.68-0.39,1.06-2.22,1.88-3.24
			c0.4-0.49-1.18-0.53-1.77-0.16c-1.09,0.69-1.75,0.64-1.98-0.75c0.44-0.04,0.94,0.07,1.23-0.42c0.52,0.1,1.05,0.27,1.57,0.29
			c0.52,0.02,1.04-0.75,0.97-0.79c-1.43-0.74-0.16-1.16,0.13-1.72c0.33-0.64,0.21-1.26,1.3-1.66c1.11-0.41-0.15-1.71-0.36-2.62
			c-0.42,0.11-0.69,0.53-1.08,0.7c0.39-0.17,0.66-0.59,1.08-0.7c0.05-0.2,0.1-0.39,0.15-0.59c-0.59-0.34-1-1.37-1.77-0.93
			c-0.99,0.57,0.05,1.38,0.07,2.09c0,0.06,0.02,0.13,0.03,0.19c-0.62,0.52-1.21,1.09-1.88,1.54c-0.77,0.51-1.59,1.25-2.58,0.78
			c-0.91-0.43-0.41-1.46-0.62-2.21c0.13-0.56,0.02-1.08-0.25-1.58c-1.09-2.03-1.42-4.2-1.28-6.48c0,0,0,0,0,0
			c0.41-0.1,0.81-0.2,1.22-0.3c0.19-1.18,0.91-1.66,2.06-1.55c0.14-0.14,0.28-0.28,0.42-0.42c0,0-0.02,0.02-0.02,0.02
			c0.14-0.14,0.29-0.29,0.43-0.43c0,0,0,0.03,0,0.03c-0.02-1.1,0.86-1.54,1.56-2.11c1.4-1.21,2.79-2.42,4.19-3.63
			c0.39-1.83,1.54-3.45,0.57-5.59c-0.87-1.92-1.67-3.36-4.05-3.1c-0.28,0.03-0.59-0.27-0.88-0.41c-1.28,0.26-2.53,1.11-3.87,0.11
			c-0.4-0.3-0.7,0.1-1.01,0.39c-2.47,2.29-4.95,4.57-7.44,6.84c-0.28,0.25-0.91,0.35-0.75,0.79c0.21,0.57,0.81,0.66,1.4,0.49
			c0.3,1.62,1.76,2.28,2.76,3.33c0.04,0.4,0.08,0.81,0.12,1.21c0,0-0.03-0.03-0.03-0.03c0.01,0.01,0.02,0.02,0.03,0.03
			c-0.83-0.38-1.06-0.02-0.69,0.69c0.5,0.96,1.21,1.82,1.69,2.79c0.32,0.66,1.34,1.52,0.58,2.06c-0.75,0.53-1.38-0.63-1.88-1.19
			c-0.76-0.85-1.19-2.41-2.06-2.67c-2.02-0.61-2.21-2.29-2.94-3.7c0.5,0.16,1.04,0.31,0.47-0.53c-1.98-2.91-6.01-3.95-9.01-2.28
			c-0.71,0.39-0.98,0.04-1.3-0.44c-0.39-0.59-0.96-1.34-1.54-0.49c-0.73,1.08-0.99,0.42-1.42-0.12c-0.46-0.58-1.11-1.65-1.63-1.3
			c-1.66,1.1-1.94-0.63-3.4-1.03c1.42-0.45,2.25-0.39,3.13-0.15c1.5,0.4,3.04,0.7,4.57,0.99c0.38,0.07,0.85,0.04,0.98-0.49
			c0.07-0.28-0.04-0.62-0.35-0.63c-2.18-0.04-0.33-1.21-0.83-1.94c1.26,0.53,2.07,1.31,3.32,1.09c-1.27-0.86-0.37-3.87-3.28-3.05
			c-0.19,0.05-0.52-0.16-0.71-0.33c-1.31-1.18-2.95-1.6-4.58-2.06c0,0,0,0,0,0c0.01-0.81,1.1-2.45-1.18-1.55
			c-0.21,0.08-0.54-0.05-0.78-0.16c-1.2-0.54-2.31-1.48-3.78-0.72c-0.13,0.07-0.56-0.14-0.65-0.32c-0.18-0.39,0.16-0.6,0.46-0.76
			c0.84-0.43,1.81-0.02,2.74-0.25c-0.29-0.71-0.98-0.69-1.3-1.08c-0.67-0.8-3.38-0.86-1.07-2.86c0.46-0.4-0.15-0.81-0.59-1.03
			c-0.42-0.21-1.14-0.42-1.06-0.84c0.41-2.29-1-1.02-1.69-0.85c-1.04,0.26-2.04,0.69-3.05,1.05c-0.03,0.55-0.06,1.13,0.38,1.52
			c1.33,1.16,1.48,2.87,1.8,4.38c0.22,1.03,0.13,2,1.39,2.57c-1.89,0.01-2.09,1.2-2.14,2.5c-0.13,0.44-0.57,0.83-0.28,1.32
			c0.19,0.32,0.51,0.31,0.89,0.19c4.36-1.41,8.74-1.53,13.15-0.2c-0.66,0.83-1.55,0.45-2.25,0.25c-3.78-1.05-7.4-0.56-10.83,1.18
			c-0.94,0.48-1.25-0.39-1.96-0.47c-0.09,0.96-0.17,1.83-0.26,2.7c-0.57,1.75,1.15,2.04,1.95,2.81c0.51,0.49,0.71,0.85,0.65,1.47
			c0.22-0.39,0.44-0.78,0.67-1.19c0.84,0.61,0.37,1.51,0.6,2.24c0.07-0.05,0.13-0.11,0.17-0.18c-0.04,0.07-0.1,0.13-0.17,0.18
			c-0.48,0.74-1.31,1.33-1.16,2.38c0.78,0.16,0.97-0.58,1.49-0.67c-0.17,1.96-1.61,3.4-2.12,5.22c0.16,0.16,0.31,0.31,0.46,0.47
			c1.94-2.69,4.66-5.17,2.46-8.99c-0.25-0.73-0.5-1.47-0.78-2.27c1.98-0.39,1.77,1.42,2.46,2.26c0.03,1.91,0.06,3.82,0.1,5.73
			c0.76,0.33,1.8-0.09,2.34,0.85c0.53,0.91,0.82,1.51-0.68,1.97c-1,0.31-3.04,0.55-1.96,2.78c0.34,0.69-0.61,1.22-1.11,0.79
			c-0.73-0.63-1.85-0.54-2.37-1.43c-0.73,1-1.65,1.74-2.87,2.05l0,0c-0.86,1.05-2.08,1.53-3.27,2.05c-0.01,0.13-0.02,0.26-0.03,0.39
			c-0.22,0.67,1.51,0.4,0.62,1.66c-0.79,1.12-1.42,1.03-2.37,0.65c0.88-1.49-0.15-2.62-0.7-3.84c-0.48-0.18-0.95-0.35-1.68-0.62
			c0,1.05,0,2,0,2.96c-0.02,0.44-0.05,0.88-0.07,1.32c0.16,1.47,0.3,2.96,1.12,4.25c0.18,0.29,0.53,0.5,0.1,0.77
			c-0.17,0.1-0.53,0.05-0.73-0.07c-3.85-2.24-3.85-2.25-6.16,1.9c-0.2,0.36-0.48,0.43-0.83,0.38c-0.14,0.15-0.29,0.29-0.43,0.44
			c0,1.29-1.25,2.39-0.58,3.79c0.69-0.21,0.75-0.87,1.01-1.36c-0.27,0.5-0.32,1.16-1.01,1.36c-0.19,0.12-0.38,0.24-0.56,0.37
			c-0.09,2.43-0.18,4.87-0.27,7.3c0.44,0.15,0.82,0.09,1.17-0.04c-0.35,0.14-0.73,0.19-1.17,0.04c-0.08,0.74-0.3,1.49-0.23,2.21
			c0.32,3.43,0.69,6.85,1.09,10.27c0.28,2.43,0.82,4.8,2.21,6.88c1.16,0.47,2.14,1.48,3.62,0.88c0.41-0.17,1.06,0.24,1.29,0.8
			c0.17,0.41,0.43,0.87,0.86,0.63c2.6-1.45,4.9,0.49,7.36,0.62c1.17,0.06,1.89,1.2,2.48,2.23c0.43,0.74,0.9,1.81,1.9,1.49
			c0.94-0.3,0.6-1.43,0.54-2.19c-0.07-0.8-0.19-1.32,0.61-2.03c0.76-0.67,0.21-1.94-0.36-2.83c-0.93-1.47-0.84-2.73,0.56-3.83
			c1.24,3.03,3.16,3.98,6.8,3.4c0.47-0.07,0.95-0.04,1.43-0.05c1.4-0.83,2.99-1.13,4.51-1.64c0.06-0.06,0.13-0.12,0.19-0.17
			c-0.01,0.04,0,0.1-0.03,0.12c-0.04,0.03-0.1,0.04-0.16,0.06c-0.03,0.38-0.06,0.75-0.09,1.13c0.05,0.05,0.09,0.11,0.14,0.16
			c1.28-0.13,1.81-1.93,3.63-1.46c-1.12,0.66-1.2,1.74-1.64,2.64c1.39,0.47,2.45-1.18,4.28-0.49c-1.9,1.06-3.5,2.07-5.21,2.85
			c-0.79,0.36-1.4-0.22-1.51-1.13c0.85,0.14,1.91,0.81,2.05-0.83c-0.82-0.06-1.52,0.16-2.05,0.82c-0.81,0-1.62,0-2.44,0
			c1.25-0.03,0.57-1.39,1.23-1.77c-0.69-0.5-1.32-0.29-1.91,0.18c-0.36,0.29-0.7,0.41-1.04,0c-0.19,0.08-0.37,0.17-0.56,0.25
			c-0.58,0.24-1.62-0.05-1.62,0.85c-0.01,0.92,1.24,0.13,1.67,0.96c-0.65,0.7-1.32-0.16-1.95-0.04c-0.38,0.07-0.91-0.11-1,0.43
			c-0.08,0.45,0.36,0.67,0.7,0.89c1.89-0.49,1.52,0.94,1.67,1.94c0.36,0.06,0.82,0.33,0.64,0.6c-0.89,1.36,0.11,1.73,1.03,2.11
			c1.28,0.53,2.02-0.07,2.48-1.23c-0.63-0.65-1.29,0.55-1.9-0.13c0.55-0.78,1.67-0.76,1.96-0.4c1.1,1.39,2.36,1.18,3.76,0.81
			c0.15-0.04,0.39,0.3,0.59,0.46c0.57-0.44,1.05-1.26,1.94-0.51c0.79-0.79,1.85-0.17,3.09-0.4c-1.11-0.78-2.1-0.84-3.04-1.02
			c1.77-0.96,3.39-1.07,4.97,0.31c0.58,0.5,1.45,0.14,2.18,0.24c1.67,0.23,2.37-0.69,2.49-2.15c0.03-0.34-0.73-0.8,0.13-1.01
			c0.47-0.11,0.83,0.31,0.84,0.7c0.02,1.24,0.99,1.46,1.8,1.53c1.71,0.13,3.44,0.8,5.17,0.06c0-0.26-0.01-0.52-0.01-0.78
			c-1.14-0.84-2.24-0.08-3.31,0.15c-0.93,0.2-1.41,0.13-1.52-0.97c0.65,0.04,1.22,0.8,1.86,0.04c-0.15-0.51-1.31-0.49-0.66-1.64
			c0.5-0.88,0.5-2.44,0.06-3.38c-1-2.1,0.31-3.68,0.91-5.31c0.63-1.71,1.99-1.71,3.16-0.31c0.45,0.55,1.21,1.29,1.45,0.31
			c0.24-0.97,1.16-1.69,0.96-2.77c-0.6-0.04-1.3-0.02-1.41-0.78c-0.09-0.68,0.53-0.77,1.04-0.95c0.42-0.15,0.8-0.45,1.19-0.68
			c0.01-0.16,0.01-0.32,0.02-0.49c0.41-0.01,0.82-0.02,1.23-0.03c0.29-0.19,0.58-0.33,0.87-0.4c-0.29,0.07-0.58,0.21-0.87,0.4
			c0.67,3.01,1.63,0.05,2.44,0.12c1.23-0.31,2.46-0.61,3.69-0.92c2.71-0.67,4.7-2.52,6.82-4.17c0.42-0.33,0.76-0.79,1.37-0.77
			c0.02-0.26,0.03-0.51,0.05-0.77c-3.33,1.23-6.64,2.5-9.99,3.67C93.87,73,92.37,73.61,91.19,72.04z M85.79,51.71L85.79,51.71
			c0.02-0.05,0.04-0.1,0.06-0.14C85.83,51.61,85.81,51.66,85.79,51.71z M56.43,22.1c-0.03,0.03-0.06,0.07-0.1,0.1v0
			C56.36,22.16,56.39,22.13,56.43,22.1z M48.68,35.56c0.01-0.04,0.01-0.09,0.04-0.12c0.02-0.03,0.09-0.02,0.13-0.03
			C48.79,35.46,48.73,35.51,48.68,35.56z M48.72,32.71c-0.06,0.16-0.08,0.34-0.11,0.53C48.64,33.05,48.66,32.87,48.72,32.71z
			 M69.11,75.41c0,1.73,0,3.06,0,4.52C67.28,78.56,68.17,77.18,69.11,75.41z M74.96,58.72c0.03,0.04,0.06,0.07,0.09,0.11
			C75.02,58.79,74.98,58.75,74.96,58.72z M82.05,59.09c-0.72-0.03-1.47-0.24-2.2-0.31C80.58,58.85,81.33,59.06,82.05,59.09z
			 M85.45,61.36c0.25,0.36,0.86,0.53,0.69,1.09c-0.06,0.2-0.36,0.45-0.56,0.45c-0.7,0.02-0.77-0.59-0.93-1.09
			c0.04-0.26,0.08-0.53,0.12-0.79c-0.39-0.37-0.77-0.91-1.16-1.08c-0.1-0.04-0.2-0.07-0.3-0.06c0.1-0.01,0.2,0.01,0.3,0.06
			c0.39,0.18,0.77,0.71,1.16,1.08C85,61.13,85.33,61.17,85.45,61.36z M83.9,53.23c-0.17,0.17-0.25,0.37-0.28,0.59
			C83.64,53.6,83.73,53.4,83.9,53.23z M84.83,57.34c0.34,0.29,0.33,0.73,0.1,1.11c-0.44,0.72-0.99,1.1-1.81,0.52c0,0,0,0,0,0
			c0.11-0.4,0.23-0.81,0.34-1.21C83.94,57.68,84.2,56.8,84.83,57.34z M76.6,30.04c0.05-0.16,0.09-0.33,0.16-0.48
			C76.69,29.71,76.64,29.87,76.6,30.04c-0.02,0.08-0.05,0.16-0.08,0.24l0,0C76.55,30.2,76.58,30.12,76.6,30.04z M77.77,37.25
			L77.77,37.25c0.36-0.07,0.7-0.19,0.91-0.39C78.47,37.06,78.13,37.18,77.77,37.25z M37.18,72.91c-1.42-1.36-0.06-2.3,0.64-3.36
			c-0.07,0.99-0.15,1.98-0.22,2.97C37.46,72.65,37.32,72.78,37.18,72.91L37.18,72.91z M35.71,70.08c0.15-0.03,0.47,0.14,0.49,0.25
			c0.17,1.21-1.18,1.2-1.6,1.92C34.72,71.33,34.56,70.3,35.71,70.08z M56.61,46.91c-0.01,0.04-0.01,0.09-0.03,0.1
			c-0.04,0.03-0.09,0.04-0.14,0.06C56.54,46.93,56.57,46.92,56.61,46.91z M62,61.08c-0.73-0.68-1.73-0.85-1.71-1.92
			c0.01-0.33,0.42-0.65,0.75-0.47C61.9,59.13,62.24,59.87,62,61.08z M43.32,47.89c1-1.66,2.17-1.72,3.51,0.01c-1.17,0-2.33,0-3.5,0
			c-0.06,0.06-0.13,0.11-0.19,0.17C43.2,48.02,43.26,47.96,43.32,47.89z M39.71,51.35c0.54,0.13,1.27,0.02,1.56,0.73
			c0.4-0.07,0.8-0.13,1.2-0.2c0.08-0.63-0.16-1.45,0.89-1.51c2.17-0.12,3.73-1.28,5.14-2.82c0.87-0.95,3.31-0.6,4.08,0.7
			c0.5,0.85,1.05,0.9,1.8,0.88c0.14-0.14,0.27-0.27,0.41-0.41c0.14-0.14,0.28-0.27,0.41-0.41c0.14-0.14,0.27-0.27,0.41-0.41
			c0.14-0.14,0.27-0.27,0.41-0.41c0.02-0.02,0.05-0.05,0.07-0.07c-0.02,0.02-0.05,0.05-0.07,0.07c-0.14,0.14-0.27,0.27-0.41,0.41
			c-0.14,0.14-0.27,0.27-0.41,0.41c-0.14,0.14-0.27,0.28-0.41,0.41c-0.14,0.14-0.27,0.27-0.41,0.41c-1.2,2.3-2.85,4.14-5.52,5.27
			c0.85-2.14-1.57-1.41-1.96-2.52c-2.04,0.94-4.18,1.44-6.44,1.38c-0.02,0.25-0.21,0.3-0.42,0.32c-1.51,0.5-0.62-0.97-1.06-1.4
			C38.65,51.85,39.19,51.22,39.71,51.35z M38.28,50.62c-0.05-0.11-0.14-0.22-0.13-0.31c0.02-0.08,0.16-0.14,0.3-0.24
			c0.07,0.09,0.2,0.23,0.19,0.25C38.53,50.44,38.4,50.52,38.28,50.62z M37.66,57.52c-0.2,0.53-0.97,0.9-1.64,1.08c0,0,0,0,0,0
			C36.69,58.42,37.46,58.05,37.66,57.52z M34.75,54.99c0.9,0.32,1.2,1.35,1.42,2.23c0.1,0.42-0.09,0.92-0.15,1.39
			c-1.12-0.47-1.18-1.88-2.18-2.45C33.95,55.6,33.84,54.66,34.75,54.99z M30.44,68.42c0.2-0.12,0.4-0.25,0.61-0.37
			C30.84,68.17,30.64,68.3,30.44,68.42z M38.88,81.05c-0.39-0.64-0.94-1.3,0.32-1.61v0c0.32,0.13,0.94-0.16,0.92,0.38
			C40.1,80.51,39.68,81.02,38.88,81.05z M64.2,83.62c0.15-0.65,0.68-1.04,0.42-1.58c-0.17-0.36-0.37-0.77-0.68-0.97
			c-0.53-0.35-0.63,0.29-0.87,0.55c-1.2,1.26-1.94,2.99-3.76,3.61l0-0.02c-0.57,1.03-1.14,0.97-1.7-0.01
			c-1.23-0.66-3.26,0.13-3.66-2.03c-0.88-0.83-1.78-1.65-2.64-2.5c-0.44-0.43-1-1.02-0.22-1.5c0.61-0.38,1.04,0.05,1.35,0.75
			c0.41,0.94,1.18,1.63,2.19,2.02c2.27,0.88,3.53,0.43,5.16-1.89c-0.18-0.09-0.35-0.17-0.53-0.26c-0.53,0.02-1.07,0.05-1.6,0.07
			c-0.77,0.99-1.85,0.94-2.93,0.86c-1.34-0.5-1.73-1.88-2.45-2.88c-1.01-1.41-1.88-2.68-3.86-2.48c-0.4,0.04-1.11,0.23-1.19-0.42
			c-0.09-0.73,0.67-0.71,1.15-0.89c0.64-0.24,1.28-0.54,1.92-0.02c0.39-0.01,0.77-0.02,1.16-0.02c1.08-2.13,3.85-0.98,5.17-2.64
			c0.63,1.08,2.27,1.04,2.66,2.39c0.41,0.55,1.01,0.73,1.64,0.86c1.31-0.76,1.73,0.44,2.19,1.14c0.46,0.7,0.73,1.57,0.7,2.47
			c0.8,0.69,1.34,0.22,1.83-0.48c0.29,0.54,0.18,0.97-0.14,1.35c-0.52,0.62-1.24,1.12-0.32,2.03c0.78,0.78,1.56,1.06,2.54,0.48
			c1.07-0.64,2.25-0.93,3.47-1.1c0.29-0.04,0.57-0.06,0.69,0.23c0.11,0.26,0.02,0.67-0.27,0.66C68.95,81.25,66.92,83.37,64.2,83.62z
			 M69.58,90.31c2.51,0.03,5.24-0.97,7.15,1.69C74.61,90.19,71.84,91.47,69.58,90.31z M92.12,74.89c0.2,0,0.41,0.04,0.61,0.13
			C92.52,74.93,92.32,74.89,92.12,74.89z"/>
		<polygon class="st5" points="83.93,39.32 83.92,39.32 83.91,39.33 		"/>
		<path class="st5" d="M90.52,32.76c-0.01,0.01-0.02,0.01-0.02,0.02c0,0.01,0,0.01,0,0.02C90.49,32.8,90.52,32.76,90.52,32.76z"/>
		<path class="st5" d="M16.12,14.37c-2.03,0.87-3.45,1.75-3.95,3.66c-0.19,0.74-0.13,1.47-0.94,2.16c-0.87,0.74-3.65,1.58-0.92,3.49
			c0.05,0.03,0.09,0.12,0.08,0.18c-0.12,2.09,1.15,2.08,2.64,1.76c-0.18-1.26,1.29-1.87,1.2-3.1C15.51,20.01,14.6,17.08,16.12,14.37
			z"/>
		<path class="st5" d="M99.22,103.94c0.4-1.86,0.17-3.75,0.21-5.63c-0.67,0.12-1.34,0.24-2.01,0.36c-0.45,0.8-0.48,1.68-0.41,2.55
			c0.07,0.88-0.34,1.24-1.16,1.24c-0.19,0.33-0.51,0.38-0.84,0.41c-0.81,2.33,1.6,2.67,2.46,3.97c1.12-0.28,0.98,0.98,1.6,1.31
			c1.06-0.72,0.92-1.68,0.54-2.69C99.42,104.97,99.08,104.55,99.22,103.94z"/>
		<path class="st5" d="M21.52,17.41c0.86,0.36,1.23,1.54,2.35,1.33c0.19-0.11,0.37-0.21,0.56-0.32c0.28-1.33-1.88-2.34-0.5-3.83
			c0.02-0.02-0.14-0.29-0.22-0.29c-0.88,0.02-1.47,1.03-2.45,0.71C21.24,15.85,20.68,17.06,21.52,17.41z"/>
		<path class="st5" d="M9.55,36.07c-0.26-0.09-0.94,0.14-0.81,0.35c0.58,0.94,1.09,1.87,1.21,2.99c0.01,0.1,0.46,0.21,0.69,0.19
			c0.11-0.01,0.17-0.35,0.31-0.46c1.45-1.18,1.16-2.72,0.81-4.6C11.61,36.31,10.76,36.48,9.55,36.07z"/>
		<path class="st5" d="M24.92,16.26c0.78,0.51,1.14-0.2,1.32-0.94c0.1-0.4,0.46-0.21,0.66-0.11c0.68,0.33,0.94,0.06,0.74-0.57
			c-0.34-1.11-0.25-2.46-1.62-3.22c-0.8,0.99-0.71,2.06-0.82,3.1C25.13,15.11,24.1,15.72,24.92,16.26z"/>
		<path class="st5" d="M27.32,11.13c0.4,0.26,0.86,0.46,1.31,0.12c0.1-0.07,0.11-0.47,0.09-0.48c-1.61-0.56-0.19-0.56,0.13-0.8
			c0.63-0.46,1-1.09,1.05-1.89c-0.02-0.55-0.05-1.14-0.63-1.39c-0.43-0.18-0.64,0.28-0.59,0.56c0.2,1.29-0.32,1.81-1.61,1.88
			c-0.31,0.02-0.79,0.64-0.85,1.04C26.12,10.87,26.91,10.86,27.32,11.13z"/>
		<path class="st5" d="M92.8,43.65c-1.28,0.91-2.2,2.14-3.02,3.46C91.92,46.95,92.74,45.63,92.8,43.65z"/>
		<path class="st5" d="M11.29,32.71c-0.06-0.46,0.03-1.05-0.61-1.12c-0.55-0.06-0.84,0.36-0.91,0.89c-0.07,0.53,0.07,0.97,0.67,1.06
			C11.02,33.62,11.32,33.31,11.29,32.71z"/>
		<path class="st5" d="M108.54,65.62c-0.66,0.32-0.94,0.94-1.26,1.53C108.5,67.3,108.56,66.49,108.54,65.62z"/>
		<path class="st5" d="M105.25,68.83c0.72-0.17,1.46-0.33,1.57-1.26C105.95,67.56,105.43,67.99,105.25,68.83z"/>
		<path class="st5" d="M23.2,20.45c0.44-0.06,1.03,0,0.64-0.76C23.61,19.92,22.54,19.45,23.2,20.45z"/>
		<path class="st5" d="M87.64,22.43c0.37,0,0.75-0.01,1.12-0.02C88.38,21.96,88.01,22,87.64,22.43z"/>
		<path class="st5" d="M89.51,22.88c-0.06-0.34-0.28-0.44-0.59-0.39C88.97,22.85,89.19,22.93,89.51,22.88z"/>
		<path class="st5" d="M87.5,22.5c-0.11,0.06-0.23,0.12-0.34,0.18C87.37,22.8,87.47,22.71,87.5,22.5z"/>
		<path class="st5" d="M86.53,23.25l-0.17,0.02c0,0-0.05,0.16-0.05,0.16C86.56,23.59,86.62,23.51,86.53,23.25z"/>
		<path class="st5" d="M86.96,22.85l-0.18,0.04c0,0-0.06,0.18-0.06,0.18C86.96,23.18,87.03,23.09,86.96,22.85z"/>
		<polygon class="st5" points="92.5,90.12 92.5,90.12 92.5,90.12 		"/>
		<path class="st5" d="M90.43,90.93c1.04,0.58,1.87,2.07,3.35,0.79c-0.5-0.47-1.34-0.67-1.28-1.59c-0.26-0.06-0.51-0.13-0.77-0.19
			C91.21,90.16,90.66,90.33,90.43,90.93z"/>
		<path class="st5" d="M40.46,53.26c0,0,0.01,0,0.01,0c0-0.01,0.01-0.02,0.01-0.03L40.46,53.26z"/>
		<polygon class="st5" points="41.28,47.1 41.29,47.1 41.29,47.09 		"/>
		<path class="st5" d="M29.19,43.34c0.87,0.56,1.97,1.28,1.55,2.77c-0.18,0.63-0.15,1.36-0.08,2.02c0.06,0.55,0.52,0.18,0.81,0.18
			c0.31-1.64,0.61-3.28,0.92-4.92c-1.54,0.61-2.18-0.88-3.14-1.48c-0.66-0.41,0-0.81,0.54-1.06c1.52-0.71,2.43,0.92,3.75,0.93
			c0.53-0.01,1.06-0.02,1.59-0.03c0.99-0.7,2.15-0.79,3.29-0.97c0.23-0.11,0.47-0.22,0.7-0.32c0.15-0.17,0.29-0.33,0.44-0.5
			c-0.53-1.37-2.43-2.03-2.02-3.89c0,0-0.03-0.04-0.03-0.04c-1.28-0.29-2.18-0.96-2.53-2.32c-0.51-1.98-2.28-2.76-3.81-3.72
			c-0.36-0.22-1.24-0.28-1.12,0.31c0.55,2.61-1.35,2.21-2.78,2.43c-0.45,0.07-1.04-0.21-1.31,0.29c-0.3,0.55,0.28,0.85,0.6,1.14
			c0.68,0.63,0.73,1.01-0.04,1.75c-1.92,1.85-2.8,4.29-3.23,6.86c-0.2,1.19-0.18,2.41-0.87,3.47l0.01-0.01v0
			c0,0-0.01,0.01-0.01,0.01c0.28-1.38-1.03-2.54-0.44-4.05c0.55-1.39,1.2-2.79,1.02-4.44c-0.06-0.57,0.75-1.42,1.52-1.75
			c1.11-0.48,1.44-1.04,0.63-2.14c-0.54-0.74-0.1-1.74-0.28-2.58c-0.16-0.75,0.74-1.94-0.94-2.2c-0.55-0.08-0.02-0.79,0.21-1.16
			c0.27-0.43,0.53-0.92-0.02-1.23c-0.55-0.31-0.81,0.22-1.07,0.64c-0.27,0.43-0.17,1.13-0.86,1.27c-1.28,2.01-2.11,4.21-2.9,6.45
			c-0.39,1.12,0.01,2.46-0.97,3.4c-0.78,0.89-0.14,1.99-0.44,2.93c-0.43,1.3-0.57,2.33,1.12,2.8c0.68,0.19,0.44,0.77,0.25,1.35
			c-0.46,1.4-1.56,2.48-2.03,3.77c-0.61,1.67-1.53,2.98-2.68,4.24c-0.46,0.5-1.3,0.85-0.98,1.85c0.97-0.06,1.36-1.96,2.95-0.5
			c0.81,0.75,1.45,0.1,0.95,1.73c-0.17,0.57-0.54,1.07-0.83,1.61c0.03,0.25,0.06,0.5,0.09,0.76c0.19,0.27,0.38,0.54,0.57,0.81
			c0.22,0.31,0.33,0.84,0.87,0.58c0.48-0.24,0.73-0.76,0.34-1.17c-1.07-1.12-0.44-1.55,0.63-2c1-0.42,1.07-1.6,1.7-2.35
			c0.02-0.65,0.04-1.31,0.06-1.96c-0.45-2.43,0.41-4.57,1.51-6.65c-0.08,1.11,0.17,2.23-0.22,3.32c-0.18,0.52,0.12,0.71,0.59,0.75
			c0.24-0.04,0.58,0.23,0.77,0.73c1.27-2.33,2.51-4.55,4.12-6.51C28.08,44.05,28.25,42.73,29.19,43.34z M23.56,48.8
			c-0.02,0.04-0.09,0.06-0.13,0.09c-0.03-0.05-0.06-0.09-0.09-0.14c0.07-0.04,0.14-0.08,0.21-0.12
			C23.55,48.68,23.58,48.75,23.56,48.8z M24.48,41.62c0.43-1.16,0.36-2.31,1.41-2.83c0.11-0.06,0.89,0.66,0.85,0.96
			C26.62,40.86,25.95,41.56,24.48,41.62z M28.16,34.15c1.56-0.74,2.74-0.39,3.85,1.42C30.46,35.06,29.51,33.89,28.16,34.15z"/>
		<path class="st5" d="M45.4,37.65c0.13-0.68,0.26-1.37,0.39-2.05c-0.77-1.32-0.47-3.18-2.05-4.1c-0.01,1.49,0.01,2.98-0.03,4.48
			C43.67,37.18,44.16,37.78,45.4,37.65z"/>
		<path class="st5" d="M88.07,96.77c0.4,1.06,0.4,1.06,2.46,1.22c-0.88,1.14-0.11,1.8,0.69,2.46c0.44,0.37,1.26,0.23,1.35,1.04
			c0.64,0.42,1.28,0.85,1.96,0.07c0-0.64,0-1.28,0-1.91C93.01,97.28,90.62,96.84,88.07,96.77z"/>
		<path class="st5" d="M90.78,102.54c-1.01-1.32-2.63-1.49-4.02-2.1c-0.61,0.67,0.01,1.34-0.02,2.02c0.82,0.54,1.65,1.07,2.47,1.61
			c1.08-0.01,1.27,0.7,1.29,1.56c0.18,0.3,0.45,0.41,0.78,0.4C92.06,104.72,90.51,103.76,90.78,102.54z"/>
		<path class="st5" d="M76.96,100.77c0.4,0.14,0.82,0.59,1.22,0.09c0.5-0.62-0.4-0.83-0.44-1.31c-0.42-2.25-2.4-1.67-3.8-2.01
			c-1.18-0.28-2.15,0.19-2.33,1.59c0.01,0.13,0.01,0.25,0,0.38c0.26,0.03,0.52,0.06,0.78,0.08c0.3,0,0.6,0,0.9-0.01
			c0.1-0.02,0.21-0.02,0.31,0.01C74.9,99.46,76.52,98.43,76.96,100.77z"/>
		<path class="st5" d="M92.17,102.51c-0.16,1.14-0.17,2.24,0.76,3.11c0.39-0.02,0.77-0.05,1.16-0.07c0.02-0.78,0.04-1.55,0.06-2.32
			C93.71,102.38,92.96,102.4,92.17,102.51z"/>
		<path class="st5" d="M96.14,92.84c-0.86,0.09-1.54,0.09-1.64,0.98c0,0,0.03,0.03,0.03,0.03C95.13,93.74,95.72,93.59,96.14,92.84z"
			/>
		<path class="st5" d="M97.12,93.54c-0.05-0.02-0.1-0.04-0.14-0.06c-0.01,0.07-0.01,0.14-0.02,0.21c0.05-0.01,0.11-0.01,0.15-0.03
			C97.13,93.65,97.12,93.59,97.12,93.54z"/>
		<path class="st5" d="M50.5,41.02c0.57-0.21,1.24-0.64,0.86-1.34c-0.35-0.66-0.95,0.17-1.45,0.05c-0.94,0.37-0.97,1.47-1.65,2.05
			C49.44,42.81,49.77,41.29,50.5,41.02z"/>
		<path class="st5" d="M81.84,102.22c-0.35-0.94-0.93-1.53-2.04-1.04c0.17,0.44,0.72,0.94-0.17,1.24c-0.86,0.29-1.76,0.82-2.36-0.4
			c-0.35,0.02-0.71,0.04-1.06,0.05c-0.35,0.41-0.69,0.82-1.04,1.23c0.07,0.51,0.13,1.02,0.2,1.52c0.53,0.02,1.09-0.03,1.6,0.08
			c2.15,0.5,4.15-1.58,6.33-0.34c0.08-0.31,0.16-0.62,0.23-0.92C82.61,103.59,82.14,103.04,81.84,102.22z"/>
		<path class="st5" d="M60.04,80.84c-0.23,0.06-0.43,0.28-0.59,0.48c-0.03,0.04,0.16,0.27,0.25,0.41c0.2-0.14,0.4-0.29,0.49-0.35
			C60.33,81.01,60.27,80.77,60.04,80.84z"/>
		<path class="st5" d="M62.9,87.09c0.13,0.24,0.4,0,0.55-0.19c-0.05-0.05-0.09-0.11-0.14-0.16C63.15,86.83,62.74,86.79,62.9,87.09z"
			/>
	</g>
	<g>
		<path class="st6" d="M124.11,39.71c-0.1-0.77-0.29-1.61-1.15-1.69c-1.01-0.1-1.01,0.99-1.22,1.6c-0.69,2.03-1.22,4.12-1.82,6.18
			c-0.93,2.44-3.13,4.32-3.31,7.05c-0.23,3.5-2.71,5.9-4.14,8.8c-0.8,1.63-2.12,3.15-3.94,3.96c0.02,0.87-0.03,1.68-1.26,1.53
			c-0.15,0.14-0.31,0.28-0.46,0.43c-0.12,0.93-0.85,1.09-1.57,1.26c0,0-0.01,0.01-0.01,0.01c-0.02,0.26-0.03,0.51-0.05,0.77
			c-0.61-0.02-0.95,0.44-1.37,0.77c-2.11,1.65-4.1,3.5-6.82,4.17c-1.23,0.3-2.46,0.61-3.69,0.92c-0.81-0.07-1.77,2.9-2.44-0.12
			c-0.41,0.01-0.82,0.02-1.23,0.03c-0.01,0.16-0.01,0.32-0.02,0.49c-0.4,0.23-0.77,0.53-1.19,0.68c-0.51,0.18-1.14,0.26-1.04,0.95
			c0.11,0.76,0.81,0.74,1.41,0.78c0.2,1.08-0.72,1.79-0.96,2.77c-0.24,0.99-1,0.24-1.45-0.31c-1.17-1.4-2.53-1.4-3.16,0.31
			c-0.6,1.63-1.92,3.21-0.91,5.31c0.45,0.94,0.44,2.5-0.06,3.38c-0.65,1.15,0.5,1.13,0.66,1.64c-0.64,0.76-1.2,0.01-1.86-0.04
			c0.11,1.1,0.59,1.17,1.52,0.97c1.07-0.23,2.18-0.99,3.31-0.15c0,0.26,0.01,0.52,0.01,0.78c0.11,0.12,0.22,0.23,0.33,0.3
			c-0.11-0.08-0.22-0.18-0.33-0.3c-1.73,0.74-3.46,0.07-5.17-0.06c-0.81-0.06-1.78-0.28-1.8-1.53c-0.01-0.39-0.36-0.81-0.84-0.7
			c-0.86,0.21-0.1,0.67-0.13,1.01c-0.12,1.46-0.82,2.38-2.49,2.15c-0.73-0.1-1.61,0.26-2.18-0.24c-1.58-1.37-3.21-1.27-4.97-0.31
			c0.95,0.18,1.93,0.24,3.04,1.02c-1.24,0.23-2.29-0.39-3.09,0.4l0,0c-0.89-0.75-1.36,0.07-1.94,0.51c-0.2-0.16-0.45-0.49-0.59-0.46
			c-1.4,0.37-2.65,0.58-3.76-0.81c-0.29-0.36-1.41-0.38-1.96,0.4c0.61,0.68,1.27-0.52,1.9,0.13c-0.45,1.15-1.2,1.76-2.48,1.23
			c-0.92-0.38-1.92-0.75-1.03-2.11c0.18-0.27-0.28-0.55-0.64-0.6c-0.14-1,0.22-2.44-1.67-1.95c-0.34-0.22-0.78-0.44-0.7-0.89
			c0.09-0.53,0.62-0.35,1-0.43c0.62-0.12,1.3,0.74,1.95,0.04c-0.42-0.82-1.67-0.03-1.67-0.96c0.01-0.9,1.04-0.61,1.62-0.85
			c0.19-0.08,0.37-0.17,0.56-0.25c0.35,0.41,0.68,0.29,1.04,0c0.59-0.47,1.22-0.68,1.91-0.18c-0.67,0.38,0.02,1.74-1.23,1.77
			c0.81,0,1.62,0,2.44,0c0.53-0.66,1.23-0.88,2.05-0.82c0,0-0.01,0.01-0.01,0.01l0.01-0.01c-0.13,1.64-1.2,0.97-2.05,0.83
			c0.11,0.91,0.72,1.49,1.51,1.13c1.71-0.78,3.31-1.79,5.21-2.85c-1.82-0.69-2.89,0.96-4.27,0.49c0,0,0.01-0.01,0.01-0.01
			l-0.01,0.01c0.44-0.9,0.52-1.97,1.64-2.64c-1.82-0.46-2.35,1.34-3.63,1.46c-0.15,0.19-0.42,0.42-0.55,0.19
			c-0.16-0.29,0.25-0.25,0.42-0.35c0.03-0.38,0.06-0.75,0.09-1.13L63.4,85.6c-1.52,0.51-3.11,0.81-4.51,1.64
			c-0.48,0.01-0.96-0.03-1.43,0.05c-3.64,0.58-5.56-0.37-6.8-3.4c-1.4,1.1-1.49,2.36-0.56,3.83c0.56,0.88,1.11,2.16,0.36,2.83
			c-0.81,0.71-0.68,1.23-0.61,2.03c0.06,0.77,0.4,1.89-0.54,2.19c-1,0.32-1.47-0.75-1.9-1.49c-0.6-1.03-1.31-2.17-2.48-2.23
			c-2.46-0.13-4.76-2.07-7.36-0.62c-0.43,0.24-0.69-0.23-0.86-0.63c-0.24-0.56-0.88-0.97-1.29-0.8c-1.48,0.59-2.46-0.41-3.62-0.88
			c-1.39-2.08-1.93-4.45-2.21-6.88c-0.4-3.42-0.77-6.84-1.09-10.27c-0.07-0.72,0.15-1.47,0.23-2.21c0.09-2.43,0.18-4.87,0.27-7.3
			c-0.11-0.21-0.19-0.42-0.25-0.63c-0.13-0.41-0.17-0.79-0.14-1.16c-0.03,0.36,0.02,0.75,0.14,1.16c0.06,0.2,0.15,0.41,0.25,0.63
			c0.19-0.12,0.38-0.24,0.56-0.37c-0.67-1.39,0.58-2.5,0.58-3.79c0.14-0.15,0.29-0.29,0.43-0.44c0.3-2.52,1.94-4.75,2.15-7.24
			c-0.22,2.49-1.85,4.72-2.15,7.25c0.36,0.05,0.63-0.02,0.83-0.38c2.31-4.15,2.31-4.14,6.16-1.9c0.2,0.12,0.56,0.18,0.73,0.07
			c0.43-0.27,0.08-0.48-0.1-0.77c-0.82-1.29-0.95-2.78-1.12-4.25c0.02-0.44,0.05-0.88,0.07-1.32c0-0.95,0-1.91,0-2.96
			c0.73,0.27,1.2,0.45,1.68,0.62c0.55,1.22,1.58,2.36,0.7,3.84c0.96,0.38,1.58,0.47,2.37-0.65c0.89-1.26-0.85-0.99-0.62-1.66
			c0.01-0.13,0.02-0.26,0.03-0.39c1.19-0.52,2.41-1,3.27-2.05l0,0c1.22-0.32,2.14-1.05,2.87-2.05c0.52,0.9,1.64,0.8,2.37,1.43
			c0.5,0.43,1.44-0.1,1.11-0.79c-1.08-2.24,0.96-2.47,1.96-2.78c1.5-0.46,1.21-1.06,0.68-1.97c-0.54-0.94-1.58-0.51-2.34-0.85
			c-0.03-1.91-0.06-3.82-0.09-5.73c-0.7-0.84-0.48-2.65-2.46-2.26c0.27,0.8,0.53,1.54,0.78,2.27c2.2,3.83-0.52,6.3-2.46,8.99
			c-0.15-0.16-0.31-0.31-0.46-0.47c0.51-1.82,1.95-3.26,2.12-5.22c-0.52,0.09-0.72,0.83-1.49,0.67c-0.15-1.04,0.68-1.63,1.16-2.38
			c-0.23-0.72,0.24-1.63-0.6-2.24c-0.23,0.41-0.45,0.8-0.67,1.19c0.06-0.62-0.14-0.98-0.65-1.47c-0.8-0.77-2.52-1.06-1.95-2.81
			c0.08-0.87,0.17-1.74,0.26-2.7c0.71,0.08,1.02,0.95,1.96,0.47c3.43-1.74,7.04-2.23,10.83-1.18c0.7,0.19,1.59,0.58,2.25-0.25
			c-4.4-1.34-8.79-1.21-13.15,0.2c-0.38,0.12-0.7,0.14-0.89-0.19c-0.29-0.49,0.15-0.89,0.28-1.32c0.05-1.31,0.26-2.49,2.14-2.5
			c-1.26-0.56-1.17-1.54-1.39-2.57c-0.32-1.51-0.47-3.22-1.8-4.38c-0.44-0.39-0.41-0.97-0.38-1.52c-1.69-1.4-4.15-1.19-5.75-2.77
			c-2.57-1.63-2.65-1.68-4.11,1.16c-0.83,1.61-1.96,2.7-3.62,3.31c-0.64-0.13-1.39-0.08-1.65,0.49c-0.71,1.53-2.25,2.7-2.72,4.03
			c-0.78,2.24-1.39,4.37-3.38,5.83c-0.05,0.04-0.06,0.12-0.09,0.18c-1.71,0.86-0.38,2.56-1.02,3.72c0.69-0.15,0.59-0.84,0.86-1.27
			c0.26-0.41,0.52-0.94,1.07-0.64c0.55,0.3,0.29,0.8,0.02,1.23c-0.24,0.37-0.76,1.08-0.21,1.16c1.68,0.26,0.78,1.44,0.94,2.2
			c0.18,0.85-0.26,1.84,0.28,2.58c0.81,1.1,0.48,1.66-0.63,2.14c-0.77,0.34-1.58,1.19-1.52,1.75c0.18,1.65-0.47,3.05-1.02,4.44
			c-0.59,1.51,0.72,2.67,0.44,4.05c0.69-1.06,0.67-2.28,0.87-3.47c0.44-2.58,1.31-5.02,3.23-6.86c0.77-0.74,0.72-1.12,0.04-1.75
			c-0.32-0.3-0.9-0.59-0.6-1.14c0.27-0.5,0.86-0.22,1.31-0.29c1.43-0.22,3.33,0.19,2.78-2.43c-0.12-0.58,0.76-0.53,1.12-0.31
			c1.53,0.96,3.3,1.74,3.81,3.72c0.35,1.37,1.25,2.03,2.53,2.32c0,0,0,0,0,0l0.03,0.04c0,0,0,0,0,0c-0.41,1.86,1.5,2.51,2.02,3.89
			c-0.15,0.17-0.3,0.33-0.44,0.5c0,0,0,0,0,0c-0.23,0.11-0.47,0.22-0.7,0.32c-1.14,0.17-2.31,0.27-3.29,0.96
			c-0.53,0.01-1.06,0.02-1.59,0.03c-0.11,0.53-0.33,0.97-0.71,1.31c0.38-0.34,0.6-0.78,0.71-1.31c-1.32-0.02-2.22-1.64-3.75-0.93
			c-0.54,0.25-1.2,0.66-0.54,1.06c0.97,0.59,1.6,2.09,3.14,1.48c-0.31,1.64-0.61,3.28-0.92,4.92c0.69,1.95,0.5,2.79-1.2,3.62
			c1.69-0.82,1.89-1.66,1.2-3.62c-0.29,0-0.75,0.37-0.81-0.18c-0.07-0.67-0.1-1.39,0.08-2.02c0.42-1.49-0.68-2.21-1.55-2.77
			c-0.95-0.61-1.11,0.7-1.51,1.19c-1.61,1.96-2.85,4.19-4.12,6.51c-0.19-0.5-0.53-0.76-0.77-0.73c-0.47-0.04-0.77-0.23-0.59-0.75
			c0.39-1.09,0.14-2.21,0.22-3.32c-1.1,2.08-1.96,4.22-1.51,6.65c-0.02,0.65-0.04,1.31-0.06,1.96h0c-0.62,0.75-0.7,1.93-1.7,2.35
			c-1.07,0.45-1.7,0.88-0.63,2c0.39,0.41,0.14,0.93-0.34,1.17c-0.54,0.27-0.65-0.27-0.87-0.58c-0.19-0.27-0.38-0.54-0.57-0.81
			c-0.2,1.51,0.58,3.06,0.26,4.43c-0.54,2.33,0.5,4.05,1.75,5.56c0.96,1.16,0.96,1.83-0.04,2.74c-0.65-0.57-1.11-1.36-1.59-2.01
			c-0.76-1.03-0.33-2.66-1.03-3.9c-0.36,0.33-0.89,0.75-0.65,1.14c1.07,1.8-0.21,2.67-1.34,3.53c-1.51,1.15-1.96,2.51-1.21,4.27
			c0.01,0.03-0.18,0.15-0.24,0.2c-0.91,0.14-0.17-1.25-1.13-1.1c-0.62,1.15,0.4,1.87,0.81,2.72c0.09,0.19,0.55,0.2,0.84,0.29
			c-1.01,0.59-1.3,2.44-2.39,2.31c-2.35-0.29,0.27,1.32-0.8,1.73c-0.68,0.26,0.31,0.87,0.73,0.88c1.49,0.05,3.11,0.54,4.22-1.15
			c0.31,1.02-0.08,2.02,0.63,2.72c0.28,0.27,0.99-0.55,1.09,0.32c0.1,0.86-0.76,0.55-1.14,0.83c-0.31,0.23-0.67,0.57-0.74,0.92
			c-0.38,1.86-1.22,3.84-0.43,5.61c1.01,2.29-0.1,4.57,0.46,6.87c0.26,1.06,0.87,2.16,0.75,3.44c-0.18,1.9-0.49,3.78-0.8,5.66
			c-0.32,1.88,0.53,2.7,2.39,2.51c2.19-0.23,3.94-1.24,4.97-3.15c0.92-1.71,2.31-2.49,4.04-3.14c4.13-1.55,7.51-4.28,10.67-7.29l0,0
			c0.31-0.09,0.55-0.19,0.91,0.07c1.7,1.22,3.44,2.38,5.17,3.56c3.65,4.41,8.65,6.77,13.77,8.9c1.42,0.59,2.95,0.92,4.28,1.73
			c3.42,2.07,7.53,2.8,10.67,5.4c1.86,1.54,3.93,1.63,6.12,1.05c0.45-0.12,0.82-0.48,1.21,0.13c1.39,2.17,3.83,2.68,5.98,3.56
			c0.97,0.4,2.1,0.3,3.16-0.23c4.06-2.03,6.66-5.57,9.41-8.96c0.85-0.82,1.07-1.98,1.57-2.98c-0.62-0.33-0.47-1.6-1.6-1.31
			c-0.86-1.3-3.27-1.63-2.46-3.97c0.33-0.03,0.65-0.09,0.84-0.41c0,0,0,0,0,0c0.82,0,1.23-0.37,1.16-1.24
			c-0.07-0.88-0.04-1.75,0.41-2.55c0.67-0.12,1.34-0.24,2.01-0.36c-0.01-0.14-0.01-0.27-0.02-0.41c1.81-1.85,1.29-4.4,2-6.59
			c0.12-0.17,0.2-0.42,0.36-0.48c3.53-1.37,5.51-4.11,6.79-7.52c0.28-0.75,0.76-1.45,1.26-2.09c5.26-6.77,9.41-14.12,11.8-22.4
			c0.94-3.26,1.74-6.54,2.06-9.94c0.17-1.83,0-3.73,0.8-5.48c0-1.09,0-2.19,0-3.28C124.35,39.98,124.13,39.86,124.11,39.71z
			 M49.92,39.74c0.5,0.11,1.09-0.72,1.45-0.05c0.37,0.7-0.29,1.12-0.86,1.34c-0.73,0.27-1.06,1.79-2.23,0.77
			C48.95,41.2,48.98,40.1,49.92,39.74z M47.1,41.48c0.13,0.14,0.29,0.22,0.46,0.25C47.39,41.7,47.23,41.63,47.1,41.48z M45.78,35.61
			c-0.13,0.68-0.26,1.37-0.39,2.05c-1.24,0.12-1.72-0.48-1.69-1.67c0.04-1.49,0.02-2.98,0.03-4.48
			C45.31,32.42,45.01,34.28,45.78,35.61z M34.65,30.31c-0.22-2.21-0.9-4.13-2.18-5.67C33.75,26.18,34.44,28.1,34.65,30.31
			C34.65,30.31,34.65,30.31,34.65,30.31z M39.24,42.55c0.09,0.1,0.18,0.2,0.27,0.3C39.42,42.75,39.33,42.65,39.24,42.55
			c-0.02-0.28-0.04-0.55-0.06-0.83C39.2,42,39.22,42.28,39.24,42.55z M22.37,57.31C22.37,57.31,22.37,57.31,22.37,57.31
			c-0.06,0.57,0.11,1.17,0.05,1.74C22.48,58.48,22.31,57.88,22.37,57.31z M21.6,55.67c0.1,0.56-0.01,1.26,0.53,1.55
			C21.59,56.92,21.7,56.23,21.6,55.67z M23.07,65.3c-0.04-0.49-0.06-0.98-0.11-1.46C23.01,64.33,23.03,64.82,23.07,65.3
			c0.04,0.49,0.08,0.97,0.18,1.45c0.09-0.03,0.19-0.03,0.3-0.03c-0.11,0-0.21,0-0.3,0.03C23.15,66.27,23.1,65.79,23.07,65.3z
			 M24.84,67.13c-0.43-0.23-0.89-0.39-1.26-0.41C23.95,66.73,24.41,66.89,24.84,67.13z M99.46,84.63c0.01-0.05,0.01-0.1,0-0.16
			C99.47,84.52,99.47,84.58,99.46,84.63z M91.27,106.02c-0.33,0.01-0.6-0.1-0.78-0.4c-0.01-0.86-0.21-1.57-1.28-1.56
			c-0.82-0.54-1.65-1.07-2.47-1.61c0.03-0.67-0.59-1.35,0.02-2.01c0,0,0,0,0,0c1.39,0.61,3,0.78,4.02,2.1c0,0,0,0,0,0
			C90.51,103.76,92.06,104.72,91.27,106.02z M76.96,104.91c-0.51-0.12-1.06-0.06-1.6-0.08c-0.24,0.17-0.45,0.29-0.65,0.36
			c0.19-0.07,0.41-0.18,0.65-0.36c-0.07-0.51-0.13-1.02-0.2-1.52c0.35-0.41,0.69-0.82,1.04-1.23c-0.08-0.42,0.03-0.73,0.27-0.97
			c-0.24,0.24-0.35,0.55-0.27,0.97c0.35-0.02,0.71-0.04,1.06-0.05c0.84-0.28,1.69-0.56,2.53-0.84c1.1-0.48,1.69,0.1,2.04,1.04
			c0.3,0.82,0.77,1.37,1.69,1.42c0,0,0,0,0,0c-0.08,0.31-0.16,0.62-0.23,0.92C81.12,103.33,79.11,105.41,76.96,104.91z M71.8,101.82
			c0.28-0.15,0.42-0.4,0.5-0.68C72.22,101.43,72.08,101.67,71.8,101.82z M70.18,99.91c0.17,0,0.34,0.02,0.52,0.03
			c0.09,0.01,0.17,0.01,0.26,0.02c-0.09,0-0.17-0.01-0.26-0.02C70.52,99.93,70.35,99.91,70.18,99.91z M70.29,102.02
			c-0.01,0-0.02,0-0.03,0C70.27,102.02,70.28,102.02,70.29,102.02z M65.81,102.94c-0.18-0.17-0.36-0.33-0.53-0.51
			C65.44,102.61,65.62,102.78,65.81,102.94z M70.78,102L70.78,102c0.21-0.31,0.32-0.63,0.38-0.97
			C71.1,101.36,70.99,101.69,70.78,102z M63.46,101.54L63.46,101.54c-0.7,0.64-1.48,0.65-2.14,0.41
			C61.98,102.19,62.76,102.18,63.46,101.54z M70.78,105.3L70.78,105.3c-0.02,0.26-0.01,0.54-0.08,0.79
			C70.77,105.84,70.75,105.56,70.78,105.3z M71.22,104.85C71.22,104.85,71.22,104.85,71.22,104.85c0.05-0.05,0.1-0.09,0.15-0.14
			C71.32,104.76,71.27,104.8,71.22,104.85z M72.39,99.6C72.39,99.6,72.39,99.6,72.39,99.6c-0.26-0.03-0.52-0.06-0.78-0.08
			c0.01-0.13,0.02-0.25,0-0.38l0,0c0.18-1.4,1.16-1.87,2.33-1.59c1.4,0.34,3.38-0.24,3.8,2.01c0.08-0.05,0.15-0.11,0.2-0.19
			c-0.05,0.08-0.12,0.14-0.2,0.19c0.04,0.48,0.94,0.69,0.44,1.31c-0.4,0.5-0.82,0.04-1.22-0.09c0,0,0,0,0,0
			c-0.44-2.34-2.06-1.31-3.36-1.17c0,0,0,0,0,0c-0.1-0.03-0.21-0.03-0.31-0.01c0.07,0.13,0.15,0.17,0.23,0.11
			c-0.08,0.06-0.16,0.02-0.23-0.11C72.99,99.59,72.69,99.6,72.39,99.6z M96.4,95.78c-0.64-0.64-1.96-0.93-1.87-1.91l-0.03-0.03
			c0.11-0.89,0.79-0.9,1.64-0.98c-0.42,0.74-1.01,0.89-1.61,1.02C94.44,94.85,95.76,95.14,96.4,95.78z M90.43,90.93
			c0.23-0.59,0.78-0.77,1.3-0.99c-0.12-0.42-0.73-0.76-1-1.16c0.27,0.4,0.88,0.74,1,1.16c0.26,0.06,0.51,0.13,0.77,0.19
			c-0.06,0.92,0.78,1.12,1.28,1.59h0C92.3,93,91.47,91.51,90.43,90.93z M90.6,88.41c0,0.07,0.02,0.15,0.05,0.22
			C90.62,88.56,90.6,88.48,90.6,88.41z M83.56,95.96c0.49,0.12,0.67,0.5,0.73,0.96C84.23,96.45,84.05,96.08,83.56,95.96z
			 M90.04,106.92L90.04,106.92c-0.3-0.49-0.62-0.95-0.98-1.36c-0.36-0.41-0.75-0.77-1.19-1.08c0.43,0.31,0.83,0.67,1.19,1.08
			C89.42,105.98,89.75,106.43,90.04,106.92z M91.29,107.45c-0.21-0.51-0.65-0.49-1.07-0.51C90.64,106.96,91.08,106.94,91.29,107.45
			C91.29,107.45,91.29,107.45,91.29,107.45z M92.57,101.49c-0.1-0.81-0.92-0.67-1.35-1.04c-0.8-0.66-1.56-1.32-0.69-2.46
			c-2.06-0.16-2.06-0.16-2.46-1.22c2.55,0.07,4.93,0.5,6.46,2.88c0,0,0,0,0,0c0,0.64,0,1.27,0,1.91
			C93.85,102.34,93.21,101.91,92.57,101.49C92.57,101.49,92.57,101.49,92.57,101.49z M97.11,93.66c-0.04,0.03-0.1,0.02-0.15,0.03
			c0.01-0.07,0.01-0.14,0.02-0.21c0.05,0.02,0.1,0.04,0.14,0.06C97.12,93.59,97.13,93.65,97.11,93.66z M89.63,76.86
			c-0.01,0.26-0.06,0.51-0.17,0.74C89.58,77.38,89.62,77.12,89.63,76.86z M73.02,96.96c-1.33,0-2.67-0.88-4.01-1.11c0,0,0,0,0,0
			C70.35,96.09,71.69,96.96,73.02,96.96z M67.57,96.99c-0.09,0.03-0.18,0.06-0.28,0.05C67.39,97.04,67.48,97.02,67.57,96.99z
			 M53.58,100.37L53.58,100.37c-0.61,0.11-1.19,0.07-1.74-0.04C52.39,100.44,52.96,100.48,53.58,100.37z M34.27,92.2
			c-0.66-1-1.57-1.85-2.1-2.92C32.7,90.35,33.61,91.19,34.27,92.2c0.2,1.01,1.1,1.53,1.77,2.21C35.37,93.73,34.47,93.2,34.27,92.2z
			 M85.92,106.95c-0.31-0.58-0.83-1.06-1.14-1.65C85.09,105.89,85.61,106.37,85.92,106.95C85.92,106.95,85.92,106.95,85.92,106.95z
			 M87.31,108.04c0.87,0.03,1.87-0.59,2.7-0.36c0.01-0.25,0.02-0.5,0.03-0.76c-0.01,0.25-0.02,0.5-0.03,0.76
			C89.18,107.45,88.18,108.07,87.31,108.04z M95.2,107.05c-0.04-0.56-0.84-0.98-1.11-1.5c-0.39,0.03-0.77,0.05-1.16,0.07
			c-0.27,0.27-0.54,0.53-0.81,0.8c-0.27,0.03-0.52,0.01-0.7-0.17c0.17,0.18,0.42,0.2,0.7,0.17c0.27-0.27,0.54-0.53,0.81-0.8
			c-0.93-0.87-0.92-1.97-0.76-3.11c0.79-0.11,1.54-0.13,1.98,0.71c-0.02,0.77-0.04,1.55-0.06,2.32
			C94.36,106.07,95.16,106.48,95.2,107.05z M98.64,82.76c-0.02,0.05-0.03,0.1-0.03,0.15C98.61,82.86,98.62,82.81,98.64,82.76
			c1.27-0.26,2.21-1.06,3.16-1.84C100.85,81.7,99.92,82.5,98.64,82.76z M103.23,74.99c-0.02,0.41-0.04,0.83-0.06,1.24
			C103.19,75.82,103.21,75.41,103.23,74.99c0.65-0.08,1.24-0.44,1.88-0.61C104.47,74.55,103.88,74.91,103.23,74.99z M119.54,49.7
			c0.26-0.94,0.46-1.9,0.46-2.89C120,47.8,119.8,48.75,119.54,49.7z"/>
		<path class="st6" d="M14.46,27.84c0.18-1.03,0.51-1.9,0.98-2.72c0.79-1.4-0.07-2.08-1.22-2.6c0.1,1.22-1.38,1.84-1.2,3.1
			C14.24,25.81,13.32,27.38,14.46,27.84z"/>
		<path class="st6" d="M12.52,61c1.08-0.53,2.36-0.76,2.75-2.24c0.11-0.44,0.82-0.6,1.39-0.52c0.28-0.53,0.65-1.04,0.83-1.61
			c0.49-1.62-0.14-0.98-0.95-1.73c-1.59-1.46-1.98,0.44-2.95,0.5c-0.32-1,0.52-1.34,0.98-1.85c1.15-1.26,2.07-2.57,2.68-4.24
			c0.47-1.29,1.57-2.37,2.03-3.77c0.19-0.58,0.44-1.16-0.25-1.35c-1.69-0.47-1.55-1.5-1.12-2.8c0.31-0.93-0.34-2.04,0.44-2.93
			c-0.01-1,0.21-1.87-1.52-1.28c-1.02,0.34-1.51,0.7-1.73,1.58c-0.28,1.07-0.47,2.33-1.34,2.92c-1.93,1.33-2.09,3.29-2.41,5.26
			c-0.03,0.16-0.17,0.3-0.3,0.5c-1.08-1.33-2.03-1.67-2.9,0.29c1.73,0.12,3.13,0.35,1.79,2.56c-0.55,0.91-0.44,2.09-0.32,3.3
			c0.18,1.9,0.23,4.16-2.09,5.3C6.71,59.3,6.39,60.07,6.65,61c0.12,0.44,0.36,0.89-0.03,1.35c-0.28,0.34-0.81,0.75-0.04,1.1
			c0.38,0.18,0.84,0.61,1.26,0.04c0.38-0.51,0.97-0.41,1.49-0.55c0.52,0.71,0.22,1.6,0.61,2.62C10.57,63.77,11.07,62.09,12.52,61z"
			/>
		<path class="st6" d="M17.5,17.95c0.62,0.33,0.68,1.24,1.15,1.25c0.63,0.01,0.86-0.75,0.95-1.36c0.11-0.77,0.43-1.54,0.09-2.59
			c-0.69,0.58-1.17,1.05-1.71,1.41C17.43,17.02,17.11,17.75,17.5,17.95z"/>
		<path class="st6" d="M86.3,36.41c-0.7,0.57-1.57,1.01-1.56,2.11c0.84-0.36,1.41-1.03,2-1.67c1.43-1.19,3.21-2.05,3.76-4.05
			c1.68-0.37,1.83-1.75,2.09-3.1c0.57-3-1.37-4.85-3.09-6.81c-0.31,0.05-0.54-0.04-0.59-0.39c0,0-0.15-0.08-0.15-0.08
			c-0.37,0.01-0.75,0.01-1.12,0.02c0,0-0.14,0.07-0.14,0.07c-0.03,0.21-0.13,0.31-0.34,0.18c-0.1,0.01-0.17,0.07-0.2,0.17
			c0.07,0.24,0,0.33-0.24,0.22c-0.1,0.02-0.16,0.08-0.19,0.18c0.08,0.25,0.03,0.34-0.22,0.18c-0.15,0.02-0.21,0.1-0.17,0.25
			c0.3,0.14,0.61,0.44,0.88,0.41c2.38-0.27,3.18,1.18,4.05,3.1c0.97,2.13-0.18,3.76-0.57,5.59C89.1,33.99,87.7,35.2,86.3,36.41z"/>
		<path class="st6" d="M23.2,20.45c0.28,0.5-0.04,1.26,0.66,1.6c0.71-1.14,2.65-2.07,0.56-3.63c-0.19,0.11-0.37,0.21-0.56,0.32
			c0,0.32-0.01,0.63-0.01,0.95C24.24,20.45,23.64,20.39,23.2,20.45z"/>
		<path class="st6" d="M14.4,36.3c0.47-0.49,1.52-0.41,1.48-1.44c-0.02-0.45-0.23-0.9-0.71-0.76c-0.62,0.18-1.39,0.36-1.31,1.3
			C13.89,35.77,13.74,36.26,14.4,36.3z"/>
		<path class="st6" d="M83.93,39.32c-1.16-0.11-1.88,0.37-2.07,1.55C82.69,40.55,83.43,40.09,83.93,39.32z"/>
		<path class="st6" d="M84.75,38.49c-0.14,0.14-0.29,0.29-0.43,0.43C84.58,38.89,84.72,38.75,84.75,38.49z"/>
		<path class="st6" d="M48.64,35.59c0,0.01,0,0.02,0,0.03c0.01,0,0.02-0.01,0.03-0.01L48.64,35.59z"/>
		<path class="st6" d="M74.22,68.54c1.48-0.69,2.56,0.67,3.89,0.7c0,0,0.02,0.01,0.02,0.01c0.28,1.42,1.52,3.17,2.32,2.87
			c1.29-0.49,2.37,0.13,3.49-0.18c2.41,0.66,4.82,1.02,7.25,0.11c0.36-0.46,0.67-0.94,0.59-1.57c0.7-0.67,1.16-1.49,1.39-2.41
			c0.73-2.86,0.73-5.87,1.62-8.7c0.45-1.23,0.89-2.45,1.34-3.68c0.43-0.53,0.66-1.16,0.94-1.78c1.99-4.38,4.03-8.74,6.06-13.1
			c2.2-1.71,1.45-4.31,1.76-6.52c0.18-1.28-1.37-1.72-2.49-0.86c-0.48,0.36-0.83,0.95-1.54,0.88c-2.49-0.25-3.47,1.48-4.28,3.33
			c-0.95,2.21-2.08,4.29-3.79,6.02c-0.05,1.98-0.87,3.3-3.02,3.46c-0.29,0.22-0.58,0.43-0.86,0.65c-0.05,0.2-0.1,0.39-0.15,0.59
			c0.22,0.91,1.48,2.21,0.36,2.62c-1.09,0.4-0.97,1.03-1.3,1.66c-0.29,0.56-1.56,0.99-0.13,1.72c0.07,0.04-0.45,0.81-0.97,0.79
			c-0.53-0.02-1.05-0.19-1.57-0.29c-0.29,0.49-0.78,0.38-1.23,0.42c0.24,1.38,0.89,1.43,1.98,0.75c0.59-0.37,2.17-0.33,1.77,0.16
			c-0.82,1.02-0.2,2.85-1.88,3.24c-0.56,0.13-0.59,0.81-0.26,0.8c0.86-0.01,0.81,2.24,2.1,0.79c0.33,0,0.62-0.07,0.78-0.4
			c0,0,0.02-0.01,0.02-0.01c0.78-0.05,1.37-0.54,2.03-0.87c0.43,0.33,0.4,0.75,0.01,1.02c-1.03,0.7-1.17,1.73-1.07,2.81
			c0.1,1.14,0.04,1.9-1.42,1.21c-0.32-0.15-0.88-0.22-1.01,0.32c-0.11,0.49,0.31,0.71,0.72,0.81c0.95,0.23,1.31,0.69,0.67,1.58
			c-2.13,0.27-3.63,2.79-6.13,1.72c-0.28-1.19-0.91-0.95-1.62-0.4c-0.55-0.13-1.09-0.25-1.64-0.38c-0.77-1.72-2.27-2.95-2.88-4.84
			c-0.49-1.52-0.22-2,1.22-1.74c0.63,0.11,0.7-0.2,0.84-0.54c0.09-0.22,0.13-0.55,0.03-0.74c-0.21-0.36-0.61-0.35-0.87-0.08
			c-0.69,0.7-1.07-0.07-1.58-0.27c-0.07,0.12-0.15,0.23-0.19,0.36c-0.78,2.41-0.46,5.1-1.82,7.38
			C73.57,68.26,73.79,68.74,74.22,68.54z M101.1,38.88c-0.49,0.24-0.97,0.49-1.34,0.8C100.13,39.37,100.6,39.12,101.1,38.88
			l0.02-0.02c0,0,0,0,0,0C101.11,38.87,101.1,38.88,101.1,38.88z M101.15,38.57c0.02-0.11,0.06-0.22,0.11-0.31
			C101.2,38.35,101.17,38.46,101.15,38.57z"/>
		<path class="st6" d="M36.02,58.6c0.06-0.46,0.25-0.96,0.15-1.39c-0.22-0.88-0.52-1.91-1.42-2.23c-0.91-0.33-0.8,0.61-0.91,1.17
			C34.84,56.72,34.9,58.13,36.02,58.6z"/>
		<path class="st6" d="M83.46,57.75c-0.11,0.4-0.23,0.81-0.34,1.21c0.82,0.58,1.37,0.2,1.81-0.52c0.23-0.38,0.25-0.81-0.1-1.11
			C84.2,56.8,83.94,57.68,83.46,57.75z"/>
		<path class="st6" d="M62,61.08c0.24-1.2-0.1-1.94-0.96-2.39c-0.34-0.18-0.75,0.14-0.75,0.47C60.28,60.23,61.27,60.39,62,61.08z"/>
		<path class="st6" d="M84.65,61.81c0.15,0.5,0.23,1.1,0.93,1.09c0.2,0,0.5-0.25,0.56-0.45c0.18-0.57-0.44-0.74-0.69-1.09
			c-0.13-0.18-0.45-0.22-0.68-0.33C84.73,61.29,84.69,61.55,84.65,61.81z"/>
		<path class="st6" d="M62.99,89.3L63,89.29c0,0,0,0,0,0C63,89.29,62.99,89.3,62.99,89.3z"/>
		<path class="st6" d="M62.99,89.3c0.01,0,0.01,0,0.02,0c0,0,0-0.01,0-0.01C63,89.29,62.99,89.3,62.99,89.3z"/>
		<path class="st6" d="M76.73,92c-1.91-2.66-4.65-1.66-7.15-1.69C71.84,91.47,74.61,90.19,76.73,92z"/>
		<path class="st6" d="M60.93,74.61c-0.63-0.13-1.23-0.31-1.64-0.86c-0.39-1.35-2.03-1.31-2.66-2.39c-1.32,1.66-4.08,0.51-5.17,2.64
			c-0.39,0.01-0.77,0.02-1.16,0.02c-0.65-0.51-1.28-0.22-1.92,0.02c-0.48,0.18-1.24,0.16-1.15,0.89c0.08,0.66,0.79,0.46,1.19,0.42
			c1.98-0.19,2.85,1.08,3.86,2.48c0.72,1,1.12,2.37,2.45,2.88c1.08,0.08,2.16,0.14,2.93-0.86c0.53-0.02,1.07-0.05,1.6-0.07
			c0.17,0.09,0.35,0.17,0.53,0.26c-1.63,2.33-2.89,2.77-5.16,1.89c-1.01-0.39-1.78-1.08-2.19-2.02c-0.31-0.71-0.74-1.13-1.35-0.75
			c-0.77,0.48-0.21,1.07,0.22,1.5c0.86,0.85,1.76,1.67,2.64,2.5c0.4,2.16,2.43,1.37,3.66,2.03c0.56,0.98,1.13,1.04,1.7,0.01
			c0,0,0,0.02,0,0.02c1.82-0.61,2.56-2.34,3.76-3.61c0.24-0.25,0.34-0.9,0.87-0.55c0.31,0.2,0.5,0.62,0.68,0.97
			c0.26,0.53-0.28,0.93-0.42,1.58c2.71-0.25,4.74-2.37,7.43-2.24c0.28,0.01,0.38-0.39,0.27-0.66c-0.12-0.28-0.39-0.27-0.69-0.23
			c-1.22,0.17-2.4,0.47-3.47,1.1c-0.98,0.58-1.76,0.3-2.54-0.48c-0.92-0.91-0.2-1.41,0.32-2.03c0.32-0.38,0.43-0.81,0.14-1.35
			c-0.49,0.7-1.03,1.18-1.83,0.48h0c0.03-0.9-0.24-1.77-0.7-2.47C62.66,75.05,62.24,73.85,60.93,74.61z M54.67,78.74
			c0.27,0.31,0.84,0.34,1.31,0.35c0.03,0.01,0.07,0.01,0.1,0.02c-0.03-0.01-0.07-0.01-0.1-0.02C55.51,79.08,54.94,79.05,54.67,78.74
			z M54.45,73.78c-0.11,1.47,0.38,2.77,0.95,4.04C54.83,76.54,54.34,75.25,54.45,73.78c1.21,0.05,2.42-0.25,3.63-0.21
			C56.87,73.53,55.66,73.82,54.45,73.78z M60.04,80.84c0.23-0.06,0.29,0.17,0.15,0.54c-0.09,0.07-0.29,0.21-0.49,0.35
			c-0.09-0.14-0.28-0.37-0.25-0.41C59.61,81.12,59.81,80.9,60.04,80.84z"/>
		<path class="st6" d="M69.11,79.93c0-1.46,0-2.79,0-4.52C68.17,77.18,67.28,78.56,69.11,79.93z"/>
		<path class="st6" d="M37.18,72.91c0.14-0.13,0.28-0.26,0.42-0.4c0.07-0.99,0.15-1.98,0.22-2.97
			C37.12,70.61,35.76,71.55,37.18,72.91z"/>
		<path class="st6" d="M36.2,70.33c-0.02-0.11-0.34-0.28-0.49-0.25c-1.15,0.22-0.99,1.25-1.11,2.17
			C35.02,71.53,36.37,71.54,36.2,70.33z"/>
		<path class="st6" d="M38.88,81.05c0.79-0.02,1.21-0.54,1.24-1.23c0.02-0.54-0.6-0.25-0.92-0.38
			C37.94,79.75,38.49,80.41,38.88,81.05z"/>
		<path class="st6" d="M63.57,85.55c0.03-0.02,0.02-0.08,0.03-0.12c-0.06,0.06-0.13,0.12-0.19,0.17c0,0,0.01,0.01,0.01,0.01
			C63.46,85.59,63.52,85.58,63.57,85.55z"/>
		<path class="st6" d="M38.15,50.31c-0.02,0.09,0.08,0.21,0.13,0.31c0.12-0.1,0.25-0.19,0.36-0.3c0.01-0.01-0.12-0.16-0.19-0.25
			C38.32,50.17,38.17,50.23,38.15,50.31z"/>
		<path class="st6" d="M40.47,53.26c2.26,0.06,4.4-0.44,6.44-1.38c0.39,1.11,2.81,0.38,1.96,2.52c2.67-1.13,4.32-2.97,5.52-5.27h0
			c0.14-0.14,0.27-0.27,0.41-0.41c0.14-0.14,0.27-0.28,0.41-0.41c0.14-0.14,0.27-0.27,0.41-0.41c0.14-0.14,0.27-0.27,0.41-0.41
			c0.14-0.14,0.27-0.27,0.41-0.41c-0.14,0.14-0.27,0.27-0.41,0.41c-0.14,0.14-0.27,0.27-0.41,0.41l0,0
			c-0.14,0.14-0.27,0.27-0.41,0.41c-0.14,0.14-0.28,0.27-0.41,0.41h0c-0.14,0.14-0.27,0.27-0.41,0.41c-0.75,0.02-1.3-0.03-1.8-0.88
			c-0.77-1.3-3.21-1.65-4.08-0.7c-1.41,1.54-2.97,2.71-5.14,2.82c-1.05,0.06-0.81,0.88-0.89,1.51c-0.4,0.07-0.8,0.13-1.2,0.2
			c-0.29-0.71-1.02-0.6-1.56-0.73c-0.52-0.12-1.06,0.5-0.72,0.84c0.44,0.43-0.45,1.89,1.06,1.4C40.26,53.56,40.45,53.51,40.47,53.26
			z"/>
		<path class="st6" d="M43.33,47.91c1.17,0,2.33,0,3.5,0c-1.35-1.74-2.52-1.67-3.51-0.01l0,0c-0.06,0.06-0.12,0.12-0.17,0.19
			C43.2,48.02,43.27,47.97,43.33,47.91z"/>
		<path class="st6" d="M56.61,46.91c-0.04,0.01-0.07,0.02-0.11,0.03c-0.02,0.05-0.04,0.09-0.06,0.14c0.05-0.02,0.1-0.03,0.14-0.06
			C56.6,47,56.6,46.95,56.61,46.91z"/>
		<path class="st6" d="M48.71,35.44c-0.02,0.03-0.03,0.08-0.04,0.12c0.06-0.05,0.11-0.1,0.17-0.15
			C48.8,35.42,48.73,35.41,48.71,35.44z"/>
		<path class="st6" d="M48.64,35.59c0,0,0.02,0.02,0.02,0.02c0-0.02,0.01-0.04,0.02-0.06C48.66,35.57,48.65,35.58,48.64,35.59z"/>
		<path class="st6" d="M25.89,38.79c-1.04,0.52-0.98,1.67-1.41,2.83c1.47-0.07,2.14-0.76,2.26-1.87
			C26.78,39.45,26,38.73,25.89,38.79z"/>
		<path class="st6" d="M32.01,35.57c-1.11-1.81-2.3-2.16-3.85-1.42C29.51,33.89,30.46,35.06,32.01,35.57z"/>
		<path class="st6" d="M23.54,48.63c-0.07,0.04-0.14,0.08-0.21,0.12c0.03,0.05,0.06,0.09,0.09,0.14c0.05-0.03,0.12-0.05,0.13-0.09
			C23.58,48.75,23.55,48.68,23.54,48.63z"/>
		<path class="st6" d="M79.63,102.42c0.89-0.3,0.34-0.79,0.17-1.24c-0.84,0.28-1.69,0.56-2.53,0.84
			C77.87,103.24,78.77,102.7,79.63,102.42z"/>
	</g>
</g>
</svg>
