<?xml version="1.0" encoding="UTF-8"?>
<svg 
x="0px" 
y="0px"
width="6.728em"
height="6.5em"
id="Layer_1" data-name="Layer 1" xmlns="http://www.w3.org/2000/svg" viewBox="0 0 128 128.03">
  <defs>
    <style>
      .cls-1 {
        fill: #3d1520;
      }

      .cls-2 {
        fill: #260d0d;
      }
    </style>
  </defs>
  <path class="cls-1" d="M57.82,60.96c1.94,.85,3.86,.53,5.77-.11,.77-.26,1.52-.56,2.27-.86,.67-.27,.42,.16,.36,.46-.23,.29-.45,.58-.68,.86-.55,.56-1.17,1.08-1.4,1.88,.7-.4,1.15-1.03,1.61-1.65,.22-.3,.44-.61,.66-.91,.08-.1,.16-.2,.24-.31,.34-.49,.45-1.28,1.22-1.23,.75,.05,.85,.84,1.11,1.36,1.3,2.58,2.23,5.32,3.15,8.05,.51,1.51,1.02,3.02,1.62,4.8-2.66-1.65-4.78-.38-6.9,.77-.3,.16-.73,.28-.75,.76,0,0,0-.06,0-.06-1.37,.64-2.45,1.72-3.75,2.56-.09-.33-.16-.65-.26-.96-.73-2.45-1.46-4.9-2.49-7.24-.11-.24-.04-.76-.59-.6l.03,.03c.31-.4-.2-.85,.06-1.25,.15-.1,.3-.2,.45-.3,1.21-.78,2.41-1.57,3.49-2.51-.07-.09-.13-.18-.2-.27-1.16,.85-2.32,1.7-3.48,2.54-.15,.1-.3,.21-.45,.31-1.93,1.32-3.86,2.63-5.78,3.97-.33,.23-.69,.39-1.07,.43-.59,.08-1.1,.32-1.71-.4-.46-.55-1.37-1.04-2.27-1.09,0,0,.03,.02,.03,.02-.05-.37-.28-.47-.61-.41l.02,.02c.06-.21-.08-.22-.22-.22l.02,.02c-.03-.25-.24-.31-.41-.42l.02,.02c-.11-.13-.21-.28-.42-.21l.02,.02c.04-.31-.22-.33-.41-.42l.02,.02c-.11-.14-.21-.3-.42-.21l.02,.02c-.03-.38-.33-.49-.6-.62l.03,.02c-.09-.16-.15-.4-.42-.2l.02,.02c.11-.26,0-.28-.22-.22l.02,.02c.08-.23-.02-.27-.21-.22l.02,.02c.06-.33-.17-.37-.4-.42h.02c-.08-.18-.15-.39-.42-.19h.02c.11-.24,0-.27-.21-.2l.02,.02c-.26-.62-.71-.97-1.39-1.01h.02c-.03-.27-.15-.39-.42-.2h.02c-.08-.86-.95-.65-1.39-1.03-.06-.05-.13-.11-.19-.16v.06c-.24-.8-1.01-.94-1.59-1.32-.71-.46-1.68-.53-2.11-1.41,1.79-.34,3.55-.75,5.03-1.94,2.06-1.53,4.1-3.1,5.53-5.32-.8,.58-1.42,1.34-2.1,2.05-1.1,1.15-2.54,1.89-3.58,3.1-.51,.21-.91,.63-1.46,.73-.13-.37,.1-.54,.37-.68,.62-.35,1.15-.81,1.68-1.29,.76-.7,.78-.92,.03-1.7,1.18-1.57,2.24-3.21,2.99-5.05,.42-1.04,.67-2.12,.91-3.33,1.18,.71,2.29,1.42,3.13,2.39,.61,.71,0,1.52-.43,2.18-.21,.32-.53,.56-.74,.88,1.19-.32,1.58-1.3,1.78-2.56,.91,1.12,1.32,.36,1.82-.27,.52-.67,1.06-1.35,1.68-1.92,.59-.54,.75-.96,.02-1.47-.18-.13-.33-.32-.49-.48-.78-1.85-.5-2.58,1.31-3.39,.36-.16,.71-.32,1.08-.45,.43-.14,.85-.34,.75-.87-.1-.52-.58-.53-1.01-.55-1.68-.11-3.36-.23-5.04-.35-.23-.02-.49-.01-.59-.25-.11-.26,.15-.41,.29-.57,.41-.42,.84-.82,1.24-1.25,.36-.38,.25-.64-.25-.73-1.17-.22-2.34-.23-3.56-.12,.23,.36,.54,.18,.76,.3,.11,1.26,.49,1.47,1.59,.85,.26-.14,.5-.29,.81-.2-.4,.43-.8,.85-1.19,1.28-.17,.19-.42,.37-.25,.67,.13,.24,.35,.36,.64,.36,.19,0,.38,.05,.57,.09,.12,.38,.31,.21,.49,.06,.15-.13,.28-.09,.41,.03,.42,.33,.6,1.04,1.23,1.02,1.09-.03,2.18-.12,3.12-.77,.67,.12,.37,.32,.04,.52-.91,.57-1.98,.83-2.8,1.57-.27,.25-.6,.49-.51,.89,.16,.69,.17,1.44,.72,1.99,.94,.86,.5,1.5-.27,2.19-.65,.58-.97,1.79-1.71,1.9-.69,.1-1.25-.99-1.9-1.52-1.48-1.2-3.16-2.06-4.82-2.95-.33-.18-.58-.07-.9,.08-1.9,.91-3.62,2.14-5.55,3-3.88,1.72-7.94,2.6-12.12,2.99-1.05,.1-2.14-.09-3.05-.75-.18-.13-.38-.26-.33-.55,0-.3-.16-.42-.44-.37,0,0-.02,0-.02,0,.14-.17-.03-.52,.27-.56,.23-.03,.3,.23,.36,.4,.32,.92,1.05,.92,1.82,.9,.54-.01,.78-.07,.46-.72-.35-.71-.93-1.36-.88-2.24,1.75,.04,3.36-.45,4.6-1.7,2.26-2.28,1.58-5.7-1.35-7.17,.24-.65,1.27-.8,1.05-1.73,1.12-.7,1.26-1.95,1.66-3.05,1.07-.84,1.13-1.66,.29-3.39,.04-.05,.08-.1,.11-.16l.44,.18c-2.44-1.14-4.81-2.4-7.25-3.55,.29-.18,.58-.23,.93-.19,3.27,.38,6.53,1.05,9.85,.54,1.5-.23,3.06-.21,4.49-.79,.72-.29,1.36-.75,2.18-.61,0,.21,0,.43,.01,.64,0,0,.01-.04,.01-.04-.8,1.18-1.1,2.56-1.42,3.93,.24-.48,.48-.97,.73-1.45,.53,1.06,.54,1.06,1.41,.26,.23-.21,.45-.35,.76-.24-.58,1.3-.57,2.49,.61,3.43,.1-.31-.02-.64-.22-.89-.61-.7-.55-1.42-.19-2.2,.2-.45,.33-.92,.5-1.38,.43-1.15,.86-2.3,1.29-3.46h0c.43,0,.48-.25,.4-.6h0c.35,.09,.37-.17,.4-.41l-.02,.03c.49-.28,.72-.79,1-1.23,.28-.43,.89-.69,.76-1.36h0c.55,.09,.66-.44,.92-.72,.88-.96,1.61-2.11,2.99-2.44,.31,0,.63-.01,.94-.02,.13,1.47-.41,2.84-.64,4.26-.41,2.45-1.11,4.84-1.3,7.33-.06,.76,0,1.51,.22,2.28,.06-.89,.11-1.79,.18-2.78,1.6,.9,2.88,2.02,4.08,3.32-.21,.18-.43,.36-.65,.55-.13,.08-.25,.15-.38,.23,.19,.02,.39,.16,.51-.08,.15-.02,.3-.03,.44-.05q1.25,.86,2.42-.38c.21-.22,.42-.41,.75-.31-.08,.13-.16,.27-.24,.4-.26,.4-.52,.8-.78,1.19-.87,1.24-1.7,2.49-.71,4.37-.19-1.7,.04-3.04,.86-4.24,.37-.32,.6-.74,.78-1.19,.26-.3,.71-.5,.55-1.03h0c.24,.11,.2-.07,.22-.2l-.03,.03c.08-.07,.15-.15,.23-.22v.03c-.01-.07-.01-.14-.01-.21,.85-.82,1.56-1.82,2.75-2.19,.05,2.41,.64,3.01,3,3.09,.26,0,.52,0,.78,.04,.44,.08,1.14-.24,1.21,.45,.06,.65-.26,1.3-.94,1.59-.51,.21-1.06,.33-1.51,.67-.64,.49-.78,1.44-.34,1.99,.24,.3,.96,.36,.69,.91-.28,.56-.54,1.19-1.2,1.49-.83,.38-1.63,.81-2.43,1.24-.18,.1-.54,.11-.41,.5,0,0,0-.06,0-.06-.4-.01-.72,.05-.6,.59h-.01c-.84,.22-1.68,.42-2.52,.65-.34,.09-.73,.17-.89,.7,.65,0,1.09-.59,1.78-.36-.96,1.39-1.95,2.68-2.53,4.23-.57,1.55-1.19,3.08-1.02,4.8,.35-1.63,.83-3.21,1.55-4.7,.42,.05,.46,.4,.56,.71,.83,2.79,2.78,4.78,4.69,6.81,.24,.26,.57,.61,.84,.08,.32-.63,.66-.35,1.02-.13,.39,.24,.76,.51,1.15,.74,.19,.11,.46,.2,.53-.15,.28-1.46,.76-2.88,.1-4.41-.63-1.47-.81-3.05-.4-4.64,.11-.42,.08-.97,.74-.98,.15,2.11,.36,4.19,1.21,6.17,.95,2.22,2.81,2.64,4.84,2.33,.83-.12,1.22-.94,1.79-1.46,.34-.32,.58-.78,1.11-.89-.6,4.96-10.06,10.69-15.26,9-.16,0-.34-.3-.46-.08-.09,.15,.17,.21,.31,.27Zm-19.27-20.25l.03-.03c-.14,0-.21,.09-.22,.23l.03-.03c-.47,.22-.65,.69-.93,1.08-.08,.06-.15,.12-.23,.18-.25-.71-.5-1.42-.75-2.12-.06-.17-.09-.43-.34-.39-.13,.02-.22,.21-.33,.32-.42,.43-.17,1.18-.74,1.53-.76,1.2-.94,2.92-.37,3.83v-1.48c.53,.06,1.05-.06,1.57-.16-.2,.48-.39,.96-.62,1.43-.33,.69-.24,1.02,.6,.78,.2,.49,.72,.73,.93,1.24,.24,.6,.64,.57,1.06,.15,.82-.84,1.64-1.7,2.49-2.51,.36-.34,.32-.68,.18-1.07,.14-.23,.6-.14,.54-.56,.45-.5,.32-1.11,.28-1.69,.11-.27-.09-.42-.24-.59-.38-.43-.96-.74-1.25-1.16-.37-.54-.5-.28-.74-.04-.27,.26-.64,.44-.71,.87l.02-.02c-.16-.01-.21,.08-.22,.22Zm14.24,11.62c-.72,1.27-.96,2.58-.4,3.97-.17-1.36,.24-2.66,.4-3.97Zm11.25,10.94c-.43,.17-.77,.43-1.02,1.08,.61-.29,.94-.55,1.02-1.08Zm-9.84-18.95c.63-.07,.89-.28,1.17-.81-.55,.14-.79,.38-1.17,.81Z"/>
  <path class="cls-1" d="M33.11,85.7c.45-.46,.73-.44,1.13,.17,.64,.96,1.34,1.92,2.3,2.62,.27,.36,.51,.75,1.1,.92-.24-.56-.57-.84-.94-1.09-.93-1.15-2.1-2.11-2.68-3.54,.5-.5,.76,.1,1.04,.28,2.47,1.57,5.26,2.1,8.07,2.12,2.18,.02,4.38-.28,6.52-.88,3.55-.99,6.84-2.4,9.44-5.16,.29-.3,.54-.68,1.04-.62,.09,.35-.14,.63-.21,.94-.48,2.1-.93,4.21-1.09,6.37-.05,.68,.19,1.41-.38,1.99,0,0,0,0,0,0-.16-.3-.32-.06-.46,0-1.07,.5-2.17,.95-3.3,1.31-.14,.05-.28,.09-.43,.14-1.66,.45-3.36,.59-5.06,.8-3.85,.48-7.45-.18-10.85-2.07-.15-.27-.35-.48-.8-.67,.19,.46,.43,.64,.67,.81,.83,.76,1.5,1.73,2.66,2.06l-.02-.02c.19,.63,.83,.75,1.27,1.07,.45,.32,.44,.55,.08,.92-2.94,2.98-6.35,4.51-10.57,3.63-.31-.06-.63-.19-.96-.04,1.13,.69,3.6,1,5.42,.57,.61-.14,.9-.02,1.11,.54,.09,.24,.23,.47,.38,.69,.78,1.22,.77,1.15-.69,1.5-2.71,.66-5.46,1.18-8.05,2.25-.64,.27-1.15,.02-1.68-.24,0,0,.03,.03,.03,.03,.2-.27,.04-.36-.21-.41l.02,.03c.02-.16-.01-.27-.21-.21h.01c.06-.19-.03-.24-.21-.2h.01c.03-.16,0-.26-.21-.2h.01c-.22-.58-.58-.96-1.27-.79h0c.04-.07,.18-.12,.05-.22-.89-.77-2-.81-3.08-.96h-.01c.18-.47-.1-.45-.4-.4l.02,.02c0-.32-.17-.33-.4-.21v.05c.13-.44-.46-.25-.47-.61,.74-.4,1.68-.33,2.35-1.13,.33-.39,.32-.43,.07-.74-1.62-2.02-2.48-4.37-2.89-6.91-.43-2.66,.4-4.93,2.04-6.94,1.65-2.03,3.31-4.05,5.23-5.84,.91-.85,1.91-1.54,2.96-2.31,.25,1.35,.47,2.63,.72,3.91,.33,1.69,.88,3.31,1.73,4.8,.4,.7,.36,1.2-.16,1.73-.05,.07-.1,.14-.16,.21-.07,.08-.14,.17-.21,.25,.17,.12,.28,.05,.34-.13,.07-.06,.14-.12,.21-.18Zm-3.65,5.12c-.79,1.57-1.89,3.07-1.18,5,.03-1.76,.8-3.33,1.18-5Zm.18-.15c.07-.07,.17-.12,.2-.2,.06-.12,.19-.37-.04-.35-.24,.02-.3,.29-.16,.55Z"/>
  <path class="cls-1" d="M71.92,73.2l2.36,.59h0c-.06,.52,.3,.4,.6,.39l-.02-.02c.19,.69,.87,.91,1.31,1.35,3.65,3.71,6.11,8.06,7.39,13.17,.51,2.04,.7,4.07,.68,6.13-.01,1.58-.42,3.15-.34,4.75,.08,1.59,.41,3.11,.82,4.64,.57,2.15,1.1,4.32,.35,6.57-.16-1.13-.67-2.06-1.45-2.86-.48-.49-.94-.66-1.64-.36-.99,.43-1.77,1.06-2.41,1.9-.44-.27-.5-.76-.6-1.19-.24-.99-.88-1.57-1.81-1.69-1.75-.23-3.5-.26-4.92,1.1-.25,.24-.51,.4-.86,.4-.15-.68,.13-1.35-.64-2-1.09-.92-.84-2.51-.61-3.7,.17-.86-.43-.79-.61-1.17-.16-.15-.33-.49-.56-.22-.12,.15,.18,.32,.37,.42-.15,.51-.53,.22-.79,.2-1.91-.16-3.75-.58-5.39-1.67,0,0,0,.01,0,.01,0-.06,.01-.14-.02-.19-1.7-2.24-2.43-4.87-3.02-7.57-.1-.45,.11-.35,.33-.39h-.01c.16,.8,.56,1.46,1.18,1.99h0c-.05,.47,.16,.81,.59,1v-.02c-.14,.24,0,.34,.2,.42l-.03-.03c.08,.08,.15,.15,.23,.23l-.03-.03c.08,.25,.17,.47,.5,.36-.03,.07-.06,.14-.09,.21,.03,.01,.05,.02,.08,.04,0-.08,0-.16,0-.24-.06-.09-.13-.18-.19-.26,.46-.13,.77,.28,1.2,.33,3.25,.34,6.47,.4,9.65-.53,.7-.21,1.22-.53,1.62-1.14,1.14-1.73,1.24-3.74,1.26-5.68,.03-3.45-.32-6.88-1.47-10.19-.58-1.68-1.19-3.27-2.71-4.32-.25-.17-.45-.38-.49-.71Zm9.38,27.71c.19-.09,.26-.23,.17-.43,.05,0,.09,.01,.14,.02,0-.04,0-.08-.01-.11-.04,.04-.07,.07-.11,.11-.14,.11-.25,.23-.17,.43-.18-.06-.18,.08-.2,.19-.62,.37-.43,.95-.37,1.49,.23-.48,.46-.95,.35-1.51,.2,.08,.17-.09,.2-.19Zm-12.71-.16c.06,.1,.12,.23,.26,.15,.16-.09,.04-.18-.03-.27-.13-.15-.25-.43-.49-.21-.09,.09,.1,.26,.25,.33Zm2.85,3.47c.24,.1,.29,0,.24-.23-.1-.74-.35-1.38-1.05-1.74-.08-.08-.15-.22-.28-.12-.14,.12,.03,.19,.08,.28,.51,.51,.75,1.16,1.02,1.81Z"/>
  <path class="cls-2" d="M71.92,73.2c.04,.32,.24,.54,.49,.71,1.51,1.05,2.12,2.64,2.71,4.32,1.15,3.31,1.5,6.74,1.47,10.19-.02,1.94-.12,3.95-1.26,5.68-.4,.61-.92,.94-1.62,1.14-3.18,.93-6.4,.88-9.65,.53-.43-.05-.74-.46-1.2-.33-.09-.05-.13-.27-.29-.1l.03,.03c.04-.19,.04-.35-.23-.23,0,0,.03,.03,.03,.03,.19-.27-.07-.32-.21-.42,0,0,.01,.02,.01,.02-.14-.37-.25-.76-.59-1.01,0,0,0,.01,0,.01-.21-.78-.53-1.49-1.18-2,0,0,.01,0,.01,0,.15-.43-.16-.74-.32-1.04-.82-1.58-1.08-3.22-.68-4.97,.25-1.09,.56-2.17,.72-3.28,.36-2.43,1.71-4.16,3.53-5.65,.82-.67,1.84-1.1,2.41-2.07,0,0,0,.06,0,.06,1.03-.49,2.07-.97,3.1-1.47,.89-.42,1.79-.53,2.72-.17Z"/>
  <path class="cls-2" d="M59.05,68.57s-.03-.03-.03-.03c.48,1.25,.99,2.49,1.42,3.75,.75,2.18,.63,2.5-1.23,3.9-.03,.02-.05,.04-.08,.06-3.39,2.34-6.9,4.38-10.99,5.23-3.29,.69-6.58,1.12-9.94,.47-1.23-.24-2.35-.84-3.58-1.07h.02c-.05-.23-.17-.34-.41-.2l.02,.02c-.04-.26-.2-.29-.41-.21h.03c-.08-.29-.37-.32-.58-.44-1.07-.66-1.8-1.53-1.98-2.86-.23-1.78-.81-3.53-.49-5.36,.11-.64,1.1-1.35,1.72-1.17,.57,.16,1.13,.37,1.7,.56,.42,.46,.89,.74,1.52,.46,.15,.04,.29,.08,.44,.12,.51,.69,1.25,.62,1.97,.61,.3,.27,.69,.28,1.06,.32,1.44,.18,2.88,.07,4.33,.02,1.7-.03,3.3-.48,4.84-1.19,.71-.53,1.32,.11,1.91,.28,1.57,.44,2.77-.11,3.96-1.01,1.09-.83,2.23-1.59,3.3-2.44,.6-.48,1.05-.58,1.46,.18Z"/>
  <path class="cls-1" d="M80.89,35.36c1.02,.02,1-.8,1.15-1.48,.67-.91,1.65-.71,2.56-.73,.02,.88-.08,1.79,.61,2.51h.07s0,.07,0,.07c.18,.05,.23,.46,.52,.2h-.01c-.13,.27,.06,.22,.21,.2l-.03-.02c.39,.54,.78,.37,1.17,0h-.02c.14,.03,.35,.1,.21-.19h0c.14,.26,.29,0,.44,.02l.07-.05,.07,.05c.43,1.13,.16,2.28,.1,3.42-.02,.36-.24,.37-.54,.32-.47-.07-.47-.04-.71,.27l.02-.03c-.25-.11-.29-.01-.21,.21h.01c-.79,.54-.83,1.43-.93,2.26-.05,.37-.2,.87,.36,1.08l-.02-.05c.3,.34,.39,.61,.07,1.08-1.13,1.66-2.74,2.44-4.58,2.92-2.14,.55-4.17,1.38-6.18,2.32-1.66,.78-2.91,2.07-4.23,3.27-1.24,1.13-3.17,1.1-4.35-.12-1.41-1.46-1.73-3.31-1.87-5.24,.88,.13,1.75,.45,2.63-.12,3.19-2.07,6.39-4.11,9.59-6.16,.45-.29,.93-.56,.91-1.18-.05-1.48,.42-2.85,.77-4.25,.48-.01,.96,.02,1.43-.05,.29-.05,.74-.03,.74-.55l-.03,.03Zm2.17,.67c-.3,.8-.54,1.62-.81,2.43,.59-.69,.87-1.5,.81-2.43Z"/>
  <path class="cls-1" d="M74.28,73.78c.19-.2-.09-.33-.08-.51,.02-.03,.05-.07,.07-.1,2.29,1.47,4.69,2.6,7.43,2.87,2.04,.2,3.72,1.24,5.29,2.51,.17,.14,.37,.26,.55,.38v-.02c.47,.52,.87,1.13,1.57,1.39v-.02c-.14,.4,.03,.65,.38,.81h-.01c-.02,.28,.04,.5,.41,.39h0c-.33,.23-.02,.45,.05,.65,.33,.89,.76,1.74,1.06,2.64,.92,2.74,.74,5.41-.57,7.99-.12,.24-.51,.46-.15,.81h0c-.87,.46-1.04,1.38-1.38,2.18v-.02c-.23-.11-.21,.05-.2,.21v-.02c-.22,.06-.38,.15-.19,.42v-.02c-.06-.01-.14-.15-.2-.01-.03,.06,0,.15,0,.23h.02c-.3-.18-.23,.03-.21,.2l.02-.02c-.22-.08-.24,.05-.21,.21l.02-.02c-.19-.05-.21,.07-.21,.21v-.02c-1.13,.49-1.92,1.69-3.32,1.73-.13-.61-.05-1.24,.05-1.84,.88-5.24-.49-10.04-2.81-14.64-1.58-3.13-3.53-5.97-6.38-8.08-.13-.09-.23-.24-.42-.15,0,0,.02,.02,.02,.02-.05-.36-.25-.5-.6-.41h0Z"/>
  <path class="cls-1" d="M87.55,78.94c.27-.33-.08-.45-.23-.55-1.14-.79-2.13-1.83-3.52-2.3,2.31-.26,4.39-1.59,6.82-1.33,3.9,.41,7.41,3.33,8.13,7.2,.27,1.46,.54,2.91,.39,4.38-.2,1.93-1.15,3.56-2.43,4.95-1.92,2.08-4.15,3.78-6.65,5.09-.76,.4-1.39,1.09-2.32,1.16l.02,.02c-.02-.14,.21-.28,0-.41,0,0,0,.02,0,.02,.24,.1,.26-.02,.21-.21,0,0-.02,.02-.02,.02,.22,.08,.24-.04,.21-.21,0,0-.02,.02-.02,.02,.19,.05,.23-.05,.21-.21,0,0-.02,.01-.02,.01,.17,.03,.2-.08,.21-.21,0,0-.01,.02-.01,.02,.19-.08,.33-.19,.2-.42v.02c.19,.07,.21-.06,.2-.21,0,0-.01,.02-.01,.02,.74-.55,1.17-1.3,1.38-2.19,0,0,0,.01,0,.01,.21,.02,.24-.17,.33-.3,1.31-2.03,1.42-4.32,1.25-6.61-.15-1.89-.79-3.67-1.96-5.19,0,0,0,.01,0,.01-.02-.26-.04-.51-.41-.4,0,0,.01,.01,.01,.01,.17-.42-.1-.63-.4-.81,0,0,.01,.02,.01,.02-.34-.68-.74-1.3-1.58-1.39v.02Z"/>
  <path class="cls-1" d="M98.66,89.18c.23-.75,.5-1.48,.68-2.24,.94-3.96-.75-9.65-5.53-11.7-1.27-.55-2.63-.94-4.06-.89-.25,0-.59,.12-.69-.19-.1-.31,.3-.34,.46-.52,1.22-1.41,2.47-2.79,3.7-4.19,1.47-1.67,3.14-2.59,5.43-1.84,1.98,.64,3.59,1.62,4.56,3.62,1.43,2.96,1.8,6,1.2,9.22-.19,1-.79,1.8-1.21,2.68-1.01,2.13-2.37,4.01-3.95,5.73-.14,.15-.26,.39-.59,.31Z"/>
  <path class="cls-2" d="M60.15,80.53c-.5-.07-.76,.31-1.04,.62-2.6,2.76-5.9,4.17-9.44,5.16-2.14,.6-4.34,.9-6.52,.88-2.82-.02-5.6-.54-8.07-2.12-.29-.18-.55-.78-1.04-.28-1.08-1.56-1.68-3.31-2.21-5.26,.7,.2,.99,.76,1.48,1.01,.11,.19,.08,.49,.4,.53,.4,.09,.68,.52,1.15,.43,.04,.26,.23,.19,.39,.2,.75,.58,1.63,.77,2.54,.83,.01,.12,.02,.25,.17,.26,.14,0,.18-.11,.19-.24,.14,0,.28-.01,.43-.02,.06,.48,.41,.55,.79,.54,1.23,0,2.47-.02,3.7-.03,.24,0,.46-.03,.54-.31,.21-.03,.42-.06,.63-.08,.66,.4,1.31,.2,1.97,0,1.84-.17,3.63-.57,5.34-1.28,.72-.38,1.53-.6,2.21-.95,1.11-.56,2.2-1.18,3.3-1.79,.29-.16,.44-.37,.4-.71,1.55-.45,2.4-2.04,3.99-2.55,.1,.45,.12,.93,.31,1.33,.34,.76,.22,1.33-.34,1.95-.49,.55-.83,1.24-1.24,1.87Z"/>
  <path class="cls-2" d="M64.28,45.62c-.66,.01-.63,.56-.74,.98-.42,1.59-.23,3.18,.4,4.64,.65,1.53,.18,2.95-.1,4.41-.07,.36-.34,.26-.53,.15-.39-.23-.76-.5-1.15-.74-.36-.22-.71-.5-1.02,.13-.27,.54-.6,.18-.84-.08-1.91-2.02-3.86-4.02-4.69-6.81-.09-.31-.13-.67-.56-.71,.69-2.13,2.12-3.74,3.62-5.3,0,0,.01-.01,.01-.01,.31-.08,.63-.15,.6-.59,0,0,0,.06,0,.06,.81-.13,1.44-.65,2.14-1.01,1.98-1.03,3.92-.74,5.9-.04,.32,.11,.26,.46,.52,.56,0,0,.02-.02,.02-.02-1.38,.08-2.95,1.47-3.3,2.93-.11,.47-.18,.96-.27,1.44Z"/>
  <path class="cls-1" d="M105.03,79.4c.3-3.48-.37-6.59-2.14-9.37-1.48-2.33-3.93-2.84-6.62-3,1.11-.94,2.26-1.63,3.43-2.29,.85-.48,1.75-.87,2.58-1.38,2.87-1.73,6.53-.59,7.52,3.44,.13,.54,.24,1.09,.34,1.64,.35,1.84-.05,3.4-1.43,4.76-1.56,1.54-2.57,3.49-3.39,5.54-.07,.18-.16,.35-.29,.65Z"/>
  <path class="cls-1" d="M11.54,36.91c.42-.04,.47-.5,.76-.69,.23-.16,.38-.53,.7-.46,.37,.08,.24,.49,.32,.75,.14,.5,.18,1.02,.58,1.42,.66,.68,1.47,.9,2.31,.65,.58-.17,.69,.12,.91,.49,.4,.66,.47,1.52,1.15,2.01l-.02-.03c-.17,.26-.1,.4,.21,.41l-.02-.03c-.04,.8,.52,1.36,.85,1.99,.31,.59,.41,1.12,.31,1.77-.35,2.4,.11,4.57,1.83,6.39,.74,.78,1.67,.91,2.61,1.02,1.43,.16,1.44,.14,1.41,1.65-.57-.03-.99-.44-1.5-.6-1.11-.36-2.2-.77-3.39-.84-1.58-.09-2.82-1.02-3.89-2.08-1.88-1.88-3.42-4.04-4.76-6.36-1.16-2.01-1.14-4.13-.75-6.32,.04-.25,.35-.52,.05-.81l-.02,.03c.37,.1,.37-.17,.4-.41l-.05,.02Z"/>
  <path class="cls-1" d="M115.48,62.27c-.07-.12-.15-.25-.22-.37h-.02c1.12-.07,2.18,.21,3.21,.59,1.89,.69,3.76,1.44,5.23,2.92,.07,.07,.15,.13,.22,.19,.42,.38,.83,.86,.72,1.41-.13,.64-.81,.7-1.35,.78-.86,.12-1.74,.16-2.61,.22-1.51,.11-3.04,.05-4.59,.74,.33-1.09,.9-1.99,.68-3.16-.47,.36-.26,.8-.35,1.13-.35,1.45-1.15,2.45-2.61,2.89-1.2,.36-2.2,1.1-3.18,1.87v.02c.21-1.92-.1-3.76-.78-5.56-.72-1.9-1.94-3.15-3.93-3.54,0-.24,.16-.29,.32-.3,2.2-.16,4.37-.63,6.59-.58,.95,.02,1.77,.32,2.5,.91,.56,.84,.99,1.73,1.21,2.91,.17-1.21-.17-2.1-1.06-3.05Z"/>
  <path class="cls-2" d="M78.76,35.93c-.35,1.4-.83,2.77-.77,4.25,.02,.61-.46,.89-.91,1.18-3.2,2.05-6.41,4.09-9.59,6.16-.88,.57-1.74,.26-2.63,.12-.39-1.46-.12-2.85,.41-4.22,.27-.7,.89-1,1.47-1.36,.39-.24,.93-.28,1.12-.81,0,0-.02,.02-.02,.02,.52,.02,.77-.41,1.08-.71,1.71-1.66,3.14-3.6,5.05-5.07,1.2-.93,2.54-1.54,3.99-2.17,.06,.98-.6,2.16,.81,2.62Z"/>
  <path class="cls-1" d="M31.09,56.55c-.86-1.39-.58-2.91-.51-4.41,.02-.3,.27-.32,.5-.37,2.86-.65,5.61-1.61,8.2-3.02,.42-.23,.65-.1,.91,.2,.6,.7,1.3,1.29,2.07,1.78,.25,.16,.56,.42,.9,.17,.27-.2,.22-.52,.19-.82-.09-.98-.13-1.97-.25-2.94-.08-.6,.13-.58,.58-.43,1.47,.5,1.75,.85,1.36,2.38-.83,3.21-2.27,6.06-5.03,8.04-.16-.03-.32-.04-.47-.1-2.76-1.21-5.59-1.33-8.46-.48Z"/>
  <path class="cls-1" d="M63.14,99.92c-.16,.62-.66,.68-1.18,.75-4.17,.54-8.22,.02-12.12-1.57-1.76-.72-3.34-1.75-4.76-3.03,.05-.05,.09-.11,.14-.16,.32-.03,.56,.36,.98,.15-.38-.35-.71-.65-1.24-.49l.03,.02c-.08-.62-.81-.57-1.14-1.18,.93,.39,1.72,.74,2.52,1.06,3.86,1.56,7.73,1.35,11.6,0,.14-.05,.33-.07,.29-.3h-.01c.37,.08,.71,.1,.79-.4h-.02c.3,.26,.48,.11,.6-.19,0,0-.02,0-.02,0,.65-.09,.74,.41,.89,.85,.46,1.36,.92,2.73,1.69,3.96,.35,.56,.4,.57,.95,.53h0Zm-2.77-4.14c-3.07,1.22-6.28,1.58-9.55,1.5,3.35,.55,6.55,.15,9.55-1.5Z"/>
  <path class="cls-1" d="M58.27,95.17c-1.13-.09-2.16,.43-3.24,.62-3.96,.7-7.67,.09-11.15-1.94-.84-.49-1.83-.78-2.4-1.66h0c.55-.26,1.11-.21,1.69-.05,1.32,.38,2.67,.53,4.05,.46,1.18-.06,2.36-.15,3.66-.24-.33,.44-.85,.08-1.11,.52,2.07-.3,4.09-.42,6.05-1.1,.96-.34,1.59-1.15,2.54-1.44,.16-.05,.43-.26,.12-.52,0,0,0,0,0,0-.09,.13-.07,.3,.06,.3,.9-.03,1,.6,1.1,1.27,.09,.62,.12,1.25,.31,1.83,.19,.57,.04,.96-.32,1.36,0,0,.02,0,.02,0-.31-.27-.46-.03-.6,.2,0,0,.02,0,.02,0-.33,.01-.7-.06-.79,.41h.01Zm-12.15-2.28c-.87-.09-1.74-.18-2.61-.27,.87,.23,1.73,.54,2.61,.27Zm-3.23-.39s-.05-.04-.07-.04c-.06,0-.12,0-.18,.01,.03,.02,.05,.04,.08,.05,.06,0,.12,0,.18-.01Z"/>
  <path class="cls-1" d="M34.06,25.66c-2.16,0-4.16-.09-6.15,.04-1.01,.06-1.44-.13-1.69-1.18-.46-1.97-1.6-3.65-2.59-5.38-.56-.99-.51-1.04,.61-1.11,2.41-.13,4.46,.49,5.95,2.61,1.18,1.68,2.5,3.25,3.87,5.02Z"/>
  <path class="cls-2" d="M45.73,69.05c.28,.63,.95,.78,1.41,1.18,.14,.12,.4,.14,.38,.39-.02,.24-.25,.29-.43,.33-1.69,.42-3.37,.9-5.15,.84-1.78-.06-3.55,.02-5.31-.39-1.18-.27-2.31-.62-3.28-1.38,1.75-1.73,3.84-2.6,6.28-2.76,.93-.06,1.89,.17,2.79-.26,.71,.25,1.23,.8,1.86,1.19,.48,.3,.82,.85,1.47,.85h-.03Z"/>
  <path class="cls-2" d="M36.39,61.2c.44,.88,1.41,.94,2.11,1.41,.58,.38,1.35,.52,1.59,1.32-1.02-.37-2.02-.85-3.11-.26-.88-.18-1.68-.06-2.35,.6-.45-.03-.75,.2-.97,.57l-.02,.02c-1.29,.93-1.98,2.24-2.32,3.76-.06,.59-.32,1.11-.61,1.61-1.35-.48-1.42-1.67-1.43-2.83-.02-2.4,.62-4.66,1.61-6.83,.17-.37,.35-.7,.84-.64,0,0-.02-.03-.02-.03-.17,.29,.12,.3,.24,.37,1.36,.88,2.89,.96,4.44,.93Z"/>
  <path class="cls-2" d="M25.16,101.33s0,0,0,0c.4,.31,.77,.66,1.27,.8,0,0-.01-.01-.01-.01-.03,.17-.04,.32,.21,.21,0,0-.01-.01-.01-.01-.09,.23,0,.28,.21,.21,0,0-.01-.01-.01-.01-.05,.2-.03,.31,.21,.21,0,0-.02-.03-.02-.03-.16,.26,.05,.32,.21,.41,0,0-.03-.03-.03-.03,.15,.43-.09,.58-.45,.67-2.84,.77-5.67,1.55-8.61,2.35,.64-1.23,1.5-2.18,2.27-3.2-1.4,.72-2.91,.71-4.56,1.12,1.2-1.85,2.26-3.46,3.99-4.52,.62-.38,1.02,.24,1.54,.1,0,0,0-.05,0-.05,.05,.22,.15,.36,.4,.21,0,0-.02-.02-.02-.01-.07,.34,.18,.35,.4,.39,0,0,.01,0,.01,0,0,.25,.48,.3,.27,.64-.15,.17-.6,.26-.34,.54,.21,.22,.41-.14,.55-.34,.96-.71,1.72,.09,2.55,.35Zm-3.18,.03c-.67,.34-1.27,.77-1.79,1.68,.92-.49,1.36-1.09,1.79-1.68Z"/>
  <path class="cls-2" d="M31.09,56.55c2.88-.84,5.7-.72,8.46,.48,.14,.06,.31,.07,.47,.1-1.28,1.34-2.94,1.94-4.64,2.48,1.58,.04,2.95-.59,4.18-1.52,.8-.6,1.54-1.29,2.31-1.94,.75,.78,.73,1.01-.03,1.7-.52,.48-1.06,.94-1.68,1.29-.27,.15-.5,.31-.37,.68-1.57,.58-3.12,1.18-4.88,.93-1.12-.16-2.14-.59-3.22-.86,0,0,.02,.03,.02,.03-.1-.41-.49-.48-.77-.67l-.02,.03c-.3-.48-.76-.79-1.16-1.17h.02c-.05-.36-.49-.55-.4-.97,.11-.06,.23-.13,.34-.19,1.07,1.92,2.76,2.75,4.9,2.81-1.7-.5-3.16-1.25-3.54-3.21Z"/>
  <path class="cls-2" d="M40.31,26.81c-.82-.14-1.46,.32-2.18,.61-1.43,.58-2.98,.56-4.49,.79-3.32,.51-6.58-.15-9.85-.54-.34-.04-.64,.01-.93,.19-.59-.09-1.05-.44-1.61-.74,.33-.49,.82-.45,1.23-.51,3.96-.59,7.94-.68,11.93-.49,1.81,.09,3.62,.34,5.43,.34,.22,0,.57-.14,.47,.34Z"/>
  <path class="cls-2" d="M51.2,18.67c-.31,0-.63,.01-.94,.02-.47,.04-.97-.16-1.38,.22-.94,.89-1.83,1.83-2.53,2.93,0,0,0,0,0,0-.8,.71-1.42,1.55-1.76,2.59,0,0,.02-.03,.02-.03-.33-.06-.31,.24-.4,.41,0,0,0,0,0,0-.23,.13-.39,.31-.4,.6,0,0,0,0,0,0-1.19,1.26-1.41,2.96-1.99,4.5-.31-.12-.53,.02-.76,.24-.87,.81-.88,.8-1.41-.26,.08-.87,.77-1.56,.7-2.48,0,0-.01,.04-.01,.04,.52-.31,.5-.93,.71-1.4,.48-1.05,1.04-2.01,1.84-2.86,1.68-1.76,3.22-3.68,5.15-5.19,1.42-1.11,2.25-.92,3.17,.67Z"/>
  <path class="cls-2" d="M29.26,34.78c-.4,1.1-.54,2.35-1.66,3.05,.22,.93-.81,1.08-1.05,1.73-.66-.03-1.17-.68-1.88-.46h.03c-.32-.6-.99-.52-1.49-.79-.33-.18-.68-.3-.35-.79,1.12-1.64,2-3.47,3.58-4.75,1.08,.07,2.15,.07,3.15-.42,.5,.9-.09,1.64-.33,2.43Z"/>
  <path class="cls-1" d="M34.63,64.27c.67-.66,1.47-.79,2.35-.6,1.7,.02,3.25,.53,4.69,1.4,0,0-.02-.01-.02-.01,.09,.17,.23,.23,.42,.21,0,0-.02-.01-.02-.01,.36,.48,.84,.79,1.39,1.01l-.02-.02c0,.15,.08,.2,.21,.22,0,0-.02-.01-.02-.01,.09,.17,.15,.4,.42,.2,0,0-.02-.01-.02-.01-.1,.37,.19,.36,.4,.42,0,0-.02-.02-.02-.02,0,.15,.08,.21,.21,.22,0,0-.02-.02-.02-.02,0,.14,.09,.2,.22,.22,0,0-.02-.02-.02-.02,.1,.15,.18,.34,.42,.2,0,0-.03-.02-.03-.02-.13,.24,.37,.42,0,.73-.25-.17-.52-.35-.78-.54-1.41-1.07-2.92-1.9-4.67-2.28-1.83-.39-3.53-.34-5.03,.94-.42,.36-.85,.74-.84,1.38l.02-.02c-.36-.1-.37,.18-.41,.41l.02-.02c-.33,.17-.5,.43-.4,.82l.02-.02c-.22-.08-.21,.08-.22,.22l.02-.02c-.33,.13-.38,.5-.59,.72-.45,.46-.91,.98-1.58,.3,.29-.5,.55-1.01,.61-1.61,.82-1.23,1.53-2.54,2.47-3.68-.05-.03-.1-.05-.15-.08,0,0,.02-.02,.02-.02,.53,.17,.74-.22,.97-.57Z"/>
  <path class="cls-2" d="M84.21,114.12c-1.45-.98-2.81-1.93-4.21-2.81-.68-.43-.78-.8-.28-1.47,.58-.78,1.22-1.43,2.08-1.87,.64-.33,1.22-.18,1.66,.35,.86,1.06,1.24,2.32,1.1,3.66-.07,.69,.07,1.46-.35,2.14Z"/>
  <path class="cls-2" d="M73.66,108.66c.39,.14,.6-.22,.86-.37,.79-.48,1.34-.27,1.78,.49,.63,1.09,.8,2.28,.73,3.51-.04,.74,.34,1.8-.21,2.14-.47,.29-1.07-.73-1.7-1.04-.98-.48-1.64-1.4-2.53-1.99-.46-.31-.11-.69-.26-.99,0,0-.03,.03-.03,.03,.65-.45,1.04-1.11,1.38-1.8l-.03,.03Z"/>
  <path class="cls-1" d="M30.95,59.26c-.69,1.76-.8,1.78-2.18,.2-1.44-1.65-2.54-3.47-2.89-5.7-.12-.79,.02-1.26,.92-1.27,.67-.01,1.33-.13,2-.2-.03,.68-.04,1.35-.08,2.03-.05,1.05-.14,2.12,.29,3.11,.13,.3,.11,.95,.78,.7,0,0-.02,0-.02,0-.12,.63,.51,1.26,1.16,1.17l.02-.03Z"/>
  <path class="cls-2" d="M71.36,108.07c.35,0,.61-.16,.86-.4,1.42-1.36,3.17-1.33,4.92-1.1,.93,.12,1.57,.7,1.81,1.69,.1,.43,.16,.92,.6,1.19-.18,.27-.37,.54-.55,.81-.5-.66-1.09-1.15-1.99-1.02-.09-.13-.19-.26-.28-.39-1.06-1.54-1.78-1.58-3.08-.17,0,0,.03-.03,.03-.03-.77,.36-1.11,1.05-1.38,1.8,0,0,.03-.03,.03-.03-.4,.08-.35,.58-.61,.76-1.46-.91-.7-2.03-.37-3.11Z"/>
  <path class="cls-1" d="M22.53,41.89c.8-.3,.85-1.12,1.17-1.76,.81-.04,1.51,.46,2.3,.48,.34,.47,.23,.99,.2,1.51-.07,1.01-.57,1.85-.96,2.74,0,0,.02-.02,.02-.02-.23,.2-.45,.41-.68,.61-.65-.1-1.02-.58-1.29-1.1-.38-.75-.86-1.21-1.75-.94,0-.22,.44-.27,.22-.57,0,0-.03,.02-.03,.02,.24,.1,.31,.03,.21-.21h-.01c.28,.15,.22-.05,.21-.2,0,0-.02,.02-.02,.02,.26-.03,.4-.12,.23-.4h-.02c.28,.16,.19-.08,.22-.2v.02Z"/>
  <path class="cls-1" d="M42.43,67.01c-.9,.43-1.86,.2-2.79,.26-2.43,.17-4.53,1.04-6.28,2.76-.67,.02-.4-.51-.47-.83,0,0-.02,.02-.02,.02,.21,.07,.19-.1,.22-.22,0,0-.02,.02-.02,.02,.26-.21,.51-.42,.4-.82,0,0-.02,.02-.02,.02,.33,.07,.34-.21,.41-.41,0,0-.02,.02-.02,.02,.48-.23,.68-.75,1.07-1.09,1.91-1.68,5.88-1.05,7.51,.26Z"/>
  <path class="cls-2" d="M23.3,48.43c-.05,.88,.53,1.53,.88,2.24,.32,.66,.08,.71-.46,.72-.77,.02-1.5,.02-1.82-.9-.06-.17-.13-.43-.36-.4-.31,.04-.14,.39-.27,.56-.77-.38-.86-1.25-1-1.88-.28-1.26-.9-2.59-.08-3.9,0,0-.01-.03-.01-.03,.68,1.53,1.41,3,3.13,3.59Z"/>
  <path class="cls-2" d="M60.43,29.79c-1.19,.37-1.91,1.37-2.75,2.19,0,.07,0,.14,0,.21,0,0,.01-.03,.01-.03-.17-.03-.24,.05-.23,.22l.03-.03c-.18-.04-.2,.09-.22,.22,0,0,0-.01,0-.01-.15,.17-.3,.33-.46,.5-.33-.1-.54,.09-.75,.31q-1.16,1.24-2.42,.38c1.77-1.41,3.26-3.09,4.65-4.88,.21-.27,.27-.95,.91-.56,.57,.35,1.45,.46,1.21,1.49Z"/>
  <path class="cls-2" d="M85.29,35.72v-.08s-.07,0-.07,0c.13-.04,.25-.1,.16-.26-.51-.9-.42-1.88-.35-2.85l-.03,.04c1.62-.21,3.11,.31,4.59,.84,.52,.18,.32,.46,.07,.72-.5,.52-1.11,.89-1.71,1.27-.18,.11-.66,.32-.03,.52,0,0-.07-.05-.07-.05,0,0-.07,.05-.07,.05,.08-.09,.17-.23,.03-.29-.25-.12-.36,.1-.47,.28,0,0,0,0,0,0-.1,.03-.32-.05-.21,.2,0,0,.02-.01,.02-.01-.39,0-.78,0-1.17,0,0,0,.03,.02,.03,.02,.02-.17-.11-.17-.21-.21,0,0,.01,0,.01,0-.15-.13-.19-.55-.52-.2Z"/>
  <path class="cls-2" d="M86.77,39.93c1.21-.04,2.36,.27,3.47,.72,.24,.1,.56,.16,.6,.44,.04,.31-.26,.55-.49,.65-1.42,.62-2.72,1.59-4.34,1.66,0,0,.02,.05,.02,.05-.17-1.18,.3-2.25,.58-3.35,0,0-.01,.01-.01,.01,.15,.01,.22-.06,.21-.21l-.02,.03Z"/>
  <path class="cls-2" d="M80.92,35.33c-.38,.19-.79,.26-1.22,.27-.91,0-1.37-.45-1.37-1.37,0-1.32,.49-2.48,1.14-3.66,.76,.69,1.31,1.5,1.76,2.38,.44,.88,.55,1.72-.34,2.41,0,0,.03-.03,.03-.03Z"/>
  <path class="cls-2" d="M13.59,35.49c.06-.54-.05-1.73,.64-2.02,.67-.28,1.13,.85,1.64,1.41,.42,.46,1.07,.88,.45,1.69-.12,.15,.02,.58,.14,.84,.31,.65,.04,.85-.57,.91-1.5,.15-2.34-.75-2.3-2.82Z"/>
  <path class="cls-1" d="M73.53,71.05c-.64-1.76-1.23-3.39-1.86-5.12,1.06,.28,1.96,.71,2.76,1.36,.39,.31,.31,.69,.2,1.08-.24,.89-.59,1.74-1.11,2.68Z"/>
  <path class="cls-2" d="M18.27,41.09c.49-.51,.97-1.01,1.46-1.52,.31,.34,.6,.68,.92,1,.49,.5,.75,1.25,1.51,1.45l-.04,.44,.02-.02c-.21-.07-.19,.09-.21,.21,0,0,.01-.01,.01-.01-.14,0-.19,.09-.21,.21,0,0,.03-.02,.03-.02-1.48,.86-1.87,.75-2.8-.71-.15-.24-.22-.56-.53-.67,0,0,.02,.03,.02,.03,0-.18,0-.34-.21-.41l.02,.03Z"/>
  <path class="cls-1" d="M70.18,61.57c-.28-.03-.34-.26-.42-.47-.25-.6-.53-1.19-.76-1.8-.13-.35-.6-.7-.04-1.09,.44-.3,.85-.74,1.43-.26,.15,.12,.33,.2,.5,.3,1.05,.68,1.1,.95,.36,2.01-.2,.29-.39,.59-.57,.9-.12,.2-.24,.39-.5,.41Z"/>
  <path class="cls-2" d="M21.54,43.41c.89-.28,1.37,.19,1.75,.94,.27,.52,.63,1.01,1.29,1.1-.93,.88-1.98,1.09-3.17,.58-.58-.24-.67-.96-1.23-1.19,0,0,.01,.03,.01,.03,.24-.3-.2-.49-.11-.82,.6,.11,1.09-.14,1.46-.64Z"/>
  <path class="cls-2" d="M17.2,36.43c.69,.27,1.43,.46,2.06,.83,.65,.38,.54,1.08,.33,1.68-.21,.6-.58,1.11-1.25,1.26-.25,.05-.42-.14-.52-.36-.42-.88-.88-1.75-1.13-2.71-.13-.47-.04-.71,.51-.7Z"/>
  <path class="cls-1" d="M48.43,71.56c-1.54,.71-3.14,1.15-4.84,1.19-1.8-.11-3.59-.23-5.39-.34-.72,0-1.46,.08-1.97-.61,1.73,.11,3.45,.39,5.2,.38,2.14,0,4.16-.43,6.18-1.06,.39-.12,.96-.5,.81,.44Z"/>
  <path class="cls-2" d="M11.22,37.26c-.42,.19-.29,.69-.59,1.04-.76-.74-1.57-1.42-2.14-2.35-.26-.42-.15-.61,.32-.58,.84,.05,1.68,.15,2.52,.18,.72,.02,.8,.24,.35,.79-.11,.13-.41,.3-.14,.57,0,0,.05-.02,.05-.02-.37-.11-.39,.15-.4,.41l.02-.03Z"/>
  <path class="cls-1" d="M22.16,42.03c-.76-.21-1.02-.95-1.51-1.45-.32-.32-.61-.67-.92-1,.23-.35,.46-.7,.68-1.05,1.27,.08,2.1,.69,2.33,2.01,.17,.49-.37,.86-.21,1.35,0,0,.01-.02,.01-.02-.24-.1-.19,.09-.22,.21,0,0,.02-.01,.02-.01-.06-.03-.12-.05-.18-.04Z"/>
  <path class="cls-2" d="M42.64,46.8c.29,1.09,.24,2.15,.26,3.19,0,.35-.13,.61-.53,.29-.05-.04-.11-.07-.17-.1-2.38-1.55-2.37-1.73,.44-3.38Z"/>
  <path class="cls-2" d="M84.61,33.14c-.92,.02-1.89-.17-2.56,.73-.39-.34-.36-.89-.63-1.3-.22-.33,.04-.36,.26-.45,1.24-.53,2.49-.52,3.78-.14-.13,.25-.53,.23-.47,.59,0,0,.03-.04,.03-.04-.32,.07-.22,.43-.41,.6Z"/>
  <path class="cls-2" d="M10.92,43.15c-1.08-.19-1.92-.35-2.65-.95,.52-.81,1.4-1.03,2.12-1.56,.43,.78,.05,1.63,.53,2.51Z"/>
  <path class="cls-1" d="M29.59,32.35c-1.01,.48-2.08,.48-3.15,.42,.2-.49,.68-.68,1.04-1,.15-.13,.34-.22,.45-.38,.42-.61,.74-.61,1.25,.08,.19,.25,.28,.58,.41,.88Z"/>
  <path class="cls-1" d="M29.74,56.95c-.11,.06-.23,.13-.34,.19-.48-1.55-.39-3.12-.09-4.69,.08-.4,.27-.51,.59-.45,.37,.07,.17,.37,.14,.56-.24,1.45-.67,2.89-.3,4.39Z"/>
  <path class="cls-1" d="M77.02,109.23c.9-.13,1.48,.37,1.99,1.02-.05,.26,0,.51,.13,.77-.1,.02-.2,.08-.26,.05-.5-.23-1.15,.43-1.42,.02-.33-.5-.31-1.23-.44-1.86Z"/>
  <path class="cls-2" d="M26,40.61c-.8-.02-1.5-.52-2.3-.48-.05-.17-.11-.33-.16-.5,.09-.08,.1-.15,0-.23,0-.28-.2-.71,.4-.48,.24,.1,.46,.34,.76,.18,0,0-.03-.01-.03-.01,.53,.43,1.2,.72,1.33,1.51Z"/>
  <path class="cls-2" d="M22.74,40.54c-.22-1.33-1.05-1.94-2.33-2.01-.02-.29-.05-.57-.07-.87,2.13,.34,2.59,.91,2.4,2.89Z"/>
  <path class="cls-1" d="M46.82,69.58c-.41-.07-.61-.6-1.09-.53,0,0,.03,0,.03,0,.01-.23-.18-.31-.31-.44-.12-.11-.27-.26-.19-.39,.13-.2,.34,0,.51,.02,0,0-.02-.02-.02-.02,.09,.18,.21,.29,.42,.21,0,0-.02-.02-.02-.02-.04,.31,.21,.34,.41,.42,0,0-.02-.02-.02-.02,.1,.16,.21,.29,.42,.21,0,0-.02-.02-.02-.02-.13,.14,.04,.23,.07,.34l-.19,.24Z"/>
  <path class="cls-1" d="M35.8,71.67c-.64,.28-1.11,0-1.52-.46,.58-.1,1.04,.23,1.52,.46Z"/>
  <path class="cls-1" d="M30.19,55.92c.17,.4,.35,.79,.52,1.19-.44-.27-.58-.68-.52-1.19Z"/>
  <path class="cls-1" d="M33.7,81.06c-.32-.03-.29-.33-.4-.53,.2-.01,.39-.02,.59-.04,0,0-.03-.01-.03-.01,.03,.28,.22,.25,.41,.21,0,0-.02-.02-.02-.02,.04,.27,.21,.27,.41,.21,0,0-.02-.01-.02-.01,.07,.14,.13,.29,.2,.43-.45,.24-.71-.42-1.15-.25Z"/>
  <path class="cls-1" d="M41.48,92.19c-.2,0-.41,0-.61,0,0,0,.02,.02,.02,.02,.18-.14-.19-.46,.1-.47,.16,0,.32,.3,.48,.47,0,0,0-.01,0-.01Z"/>
  <path class="cls-1" d="M23.54,39.41c.11,.08,.09,.15,0,.23-.22,.26-.23,.6-.23,.67,.08-.12-.58-.71,.23-.9Z"/>
  <path class="cls-1" d="M47.62,70.13c-.27-.18-.54-.37-.81-.55,.06-.08,.12-.16,.19-.24,.11,.03,.23,.05,.34,.08,0,0-.02-.02-.02-.02,.07,.07,.14,.15,.22,.22,0,0-.02-.02-.02-.02,.09,.11,.17,.23,.26,.34l-.15,.18Z"/>
  <path class="cls-1" d="M45.09,96.07c-.2-.13-.4-.26-.61-.4,.17-.2,.36-.07,.52-.09,0,0-.03-.02-.03-.02,.09,.12,.17,.23,.26,.35-.05,.05-.09,.11-.14,.16Z"/>
  <path class="cls-2" d="M21.29,50.66c.29-.05,.44,.07,.44,.37-.23-.02-.5,0-.44-.37Z"/>
  <path class="cls-1" d="M48.2,70.51c-.19-.13-.39-.26-.58-.38,.05-.06,.1-.12,.15-.18,.12,.02,.23,.05,.35,.07,0,0-.03-.02-.03-.02,.08,.13,.16,.25,.24,.38-.05,.04-.09,.09-.13,.14Z"/>
  <path class="cls-1" d="M48.61,70.48c.08,.08,.15,.16,.23,.25-.16,.12-.27,.05-.35-.1,.05-.04,.09-.09,.13-.14Z"/>
  <path class="cls-1" d="M110.62,71.47s-.06-.02-.09-.03c-.01,0-.01-.03-.02-.05,.04,.03,.07,.06,.11,.1,0,0,0-.02,0-.02Z"/>
  <path class="cls-1" d="M29.55,31.39s-.09-.08-.13-.12c.08-.01,.16-.02,.25-.04-.03,.06-.07,.11-.11,.16Z"/>
  <path class="cls-1" d="M74.2,73.28c-.09-.07-.13-.14-.04-.24,.04,.05,.07,.1,.11,.14-.02,.03-.05,.07-.07,.1Z"/>
  <polygon class="cls-1" points="30.84 57.58 30.86 57.63 30.81 57.63 30.84 57.58"/>
  <path class="cls-1" d="M87.73,97.54c0,.05-.02,.1-.03,.16-.04-.02-.07-.04-.11-.06,.05-.03,.1-.05,.16-.08,0,0-.02-.02-.02-.02Z"/>
  <path class="cls-1" d="M115.26,61.9s0-.03,0-.05c0,.02-.02,.04-.03,.06,0,0,.02-.01,.02-.01Z"/>
  <path class="cls-1" d="M48.49,70.62c-.09-.04-.19-.07-.28-.11,.04-.05,.09-.09,.13-.14,.09,.03,.18,.07,.28,.1-.04,.05-.08,.1-.13,.14Z"/>
  <path class="cls-2" d="M41.68,41.43c.04,.59,.17,1.19-.28,1.69-.3,.19-.7,.2-.93,.53,0,0,.03-.02,.03-.02-.73-.05-1.16,.91-1.96,.6,.29-.66,.26-1.32-.05-1.96,.17-.48-.28-.91-.11-1.39,0,0-.03,.03-.03,.03,.23,.08,.27-.02,.22-.23l-.03,.03c.21,.07,.28,0,.22-.22,0,0-.02,.02-.02,.02,.81-.89,1.48-.43,2.15,.21,.25,.24,.52,.47,.79,.71Z"/>
  <path class="cls-2" d="M40.87,43.69c.14,.39,.18,.73-.18,1.07-.85,.81-1.66,1.67-2.49,2.51-.42,.43-.82,.45-1.06-.15-.2-.51-.73-.75-.93-1.24,1.14-.51,2.29-1,3.42-1.53,.33-.16,.73-.28,.87-.71,0,0-.03,.02-.03,.02,.11,.25,.26,.02,.39,.03Z"/>
  <path class="cls-2" d="M35.04,41.48c.57-.35,.33-1.1,.74-1.53,.11-.11,.21-.3,.33-.32,.25-.04,.28,.21,.34,.39,.25,.71,.5,1.41,.75,2.12-.32,.51-.65,1.02-.97,1.53-.52,.1-1.03,.23-1.57,.16-.16-.83,.41-1.54,.37-2.36Z"/>
  <path class="cls-2" d="M50.59,41.41c1.46-.11,2.91,.07,4.35,.25-.95,.65-2.04,.75-3.13,.77-.63,.02-.81-.69-1.23-1.02Z"/>
  <path class="cls-2" d="M47.52,38.28c.77,.02,1.55,.03,2.32,.05,.18,0,.44,0,.41,.28-.01,.12-.22,.21-.33,.32-.31-.08-.55,.06-.81,.2-1.1,.61-1.48,.4-1.59-.85Z"/>
  <path class="cls-2" d="M49.69,41.32c.16,.02,.33,.04,.49,.06-.18,.15-.37,.32-.49-.06Z"/>
  <path class="cls-2" d="M40.28,64.03c-.12,.02-.18-.04-.19-.16,.06,.05,.13,.11,.19,.16Z"/>
  <path class="cls-1" d="M51.53,81.36c-.08-.06-.16-.13-.23-.19-.05-.06-.1-.11-.14-.17,2.18-.84,4.27-1.88,6.29-3.08,.04,.33-.11,.54-.4,.71-1.1,.61-2.2,1.23-3.3,1.79-.69,.35-1.5,.57-2.21,.95Z"/>
  <path class="cls-1" d="M38.56,82.52c1.68-.14,3.35,.29,5.03,.2-.08,.29-.3,.31-.54,.31-1.23,.01-2.47,.03-3.7,.03-.38,0-.73-.06-.79-.54Z"/>
  <path class="cls-1" d="M44.22,82.64c.55-.11,1.09-.23,1.64-.32,.23-.04,.47-.04,.33,.33-.66,.2-1.31,.4-1.97,0Z"/>
  <path class="cls-1" d="M37.78,82.52c.12,0,.24,.02,.36,.03-.01,.12-.05,.25-.19,.24-.14,0-.15-.15-.17-.26Z"/>
  <path class="cls-1" d="M50.15,81.6c-.77,.28-1.51,.76-2.56,.46,.84-.42,1.62-.53,2.4-.66,.05,.07,.11,.13,.16,.2Z"/>
  <path class="cls-1" d="M46.52,82.24c.4-.18,.66-.24,1.15-.12-.41,.28-.69,.24-1.15,.12Z"/>
  <path class="cls-1" d="M49.99,81.4c.19-.07,.39-.14,.58-.21,.05,.06,.09,.12,.14,.18-.14,.2-.37,.15-.56,.22-.05-.07-.11-.13-.16-.2Z"/>
  <path class="cls-1" d="M51.3,81.17c-.14,.23-.38,.18-.59,.21-.05-.06-.09-.12-.14-.18,.2-.06,.39-.13,.59-.19,.05,.06,.1,.11,.14,.17Z"/>
  <path class="cls-1" d="M35.22,81.71c0-.07,0-.14,0-.21,.21-.09,.49-.06,.48,.16,0,.18-.31,.06-.48,.06Z"/>
  <path class="cls-1" d="M35.24,81.51c-.14,0-.27,0-.41,0,0-.07,0-.14,0-.21,.2-.05,.39-.1,.41,.21Z"/>
  <path class="cls-1" d="M24.66,45.95c.14-.41,.74-.55,.6-1.11,0,0-.02,.02-.02,.02,1.29-.82,1.73-2.08,1.79-3.54,.41-.03,.82-.06,1.23-.09,0,0-.04,.02-.04,.02,.07,.11,.13,.22,.2,.33,1.22,1.61,.35,4.6-1.64,5.6-.63,.32-1.29,.58-2.01,.66-.57-.6,.3-1.29-.11-1.9Z"/>
  <path class="cls-2" d="M24.66,45.95c.41,.61-.46,1.3,.11,1.9-1.31,.48-2.27-.09-3.26-1.19,1.32,.45,2.36,.32,3.15-.71Z"/>
  <path class="cls-2" d="M28.26,41.23c-.41,.03-.82,.06-1.23,.09,.04-.5-.63-.81-.36-1.38v.02c.52,.44,1.37,.45,1.59,1.27Z"/>
  <path class="cls-2" d="M26.66,39.94c.03,.11,.05,.24-.12,.23-.04,0-.08-.11-.12-.17,.08,0,.17-.02,.25-.03,0,0,0-.03,0-.03Z"/>
  <path class="cls-2" d="M28.41,41.58c-.07-.11-.13-.22-.2-.33,.22,.01,.21,.17,.2,.33Z"/>
  <path class="cls-1" d="M37.62,42.11c.36-.35,.62-.09,.87,.16,.32,.65,.34,1.3,.05,1.96-.34,.45-.8,.15-1.21,.19l.02,.03c.2-.27,.09-.39-.2-.41l.03,.02c.19-.28-.24-.63,.09-.89,.45-.04,.31,1.02,.84,.55,.32-.28,.05-.87-.24-1.24-.1-.12-.25-.19-.25-.38Z"/>
  <path class="cls-2" d="M37.34,44.43c.11,.24,.54,.5-.07,.7-.39,.13-.73,.39-1.17,.34,.19-1.51,.43-1.82,1.08-1.39,0,0-.03-.02-.03-.02-.01,.18,.02,.33,.2,.41l-.02-.03Z"/>
  <path class="cls-1" d="M54.44,91.51c.14-.05,.28-.1,.42-.15,.71-.19,1.42-.38,2.22-.59-.86,.76-5.14,1.94-6.22,1.65,1.31-.36,2.51-.42,3.58-.91Z"/>
</svg>